Adamina-Regular.ufo
<glyph name="quotesingle" format="1">
  <advance width="221"/>
  <unicode hex="0027"/>
  <outline>
    <contour>
      <point x="152" y="800" type="line"/>
      <point x="152" y="832"/>
      <point x="146" y="841"/>
      <point x="111" y="841" type="curve" smooth="yes"/>
      <point x="76" y="841"/>
      <point x="70" y="828"/>
      <point x="70" y="800" type="curve"/>
      <point x="87" y="554" type="line"/>
      <point x="100" y="550"/>
      <point x="120" y="550"/>
      <point x="133" y="554" type="curve"/>
    </contour>
  </outline>
</glyph>
<glyph name="parenleft" format="1">
  <advance width="303"/>
  <unicode hex="0028"/>
  <outline>
    <contour>
      <point x="55" y="51"/>
      <point x="136" y="-84"/>
      <point x="221" y="-182" type="curve"/>
      <point x="236" y="-175"/>
      <point x="247" y="-164"/>
      <point x="251" y="-151" type="curve"/>
      <point x="182" y="-24"/>
      <point x="146" y="86"/>
      <point x="146" y="359" type="curve" smooth="yes"/>
      <point x="146" y="632"/>
      <point x="182" y="742"/>
      <point x="251" y="869" type="curve"/>
      <point x="247" y="883"/>
      <point x="235" y="894"/>
      <point x="221" y="900" type="curve"/>
      <point x="136" y="802"/>
      <point x="55" y="667"/>
      <point x="55" y="359" type="curve" smooth="yes"/>
    </contour>
  </outline>
</glyph>
<glyph name="asterisk" format="1">
  <advance width="428"/>
  <unicode hex="002A"/>
  <outline>
    <contour>
      <point x="242" y="735" type="line"/>
      <point x="233" y="739"/>
      <point x="224" y="742"/>
      <point x="214" y="742" type="curve" smooth="yes"/>
      <point x="204" y="742"/>
      <point x="194" y="739"/>
      <point x="186" y="735" type="curve"/>
      <point x="194" y="601" type="line"/>
      <point x="70" y="650" type="line"/>
      <point x="56" y="637"/>
      <point x="49" y="616"/>
      <point x="52" y="597" type="curve"/>
      <point x="182" y="563" type="line"/>
      <point x="97" y="461" type="line"/>
      <point x="105" y="443"/>
      <point x="123" y="430"/>
      <point x="142" y="427" type="curve"/>
      <point x="214" y="540" type="line"/>
      <point x="285" y="428" type="line"/>
      <point x="305" y="430"/>
      <point x="323" y="443"/>
      <point x="332" y="460" type="curve"/>
      <point x="246" y="563" type="line"/>
      <point x="375" y="596" type="line"/>
      <point x="379" y="616"/>
      <point x="372" y="637"/>
      <point x="359" y="651" type="curve"/>
      <point x="234" y="600" type="line"/>
    </contour>
  </outline>
</glyph>
<glyph name="plus" format="1">
  <advance width="575"/>
  <unicode hex="002B"/>
  <outline>
    <contour>
      <point x="312" y="635" type="line"/>
      <point x="295" y="641"/>
      <point x="279" y="642"/>
      <point x="262" y="635" type="curve"/>
      <point x="262" y="415" type="line"/>
      <point x="42" y="415" type="line"/>
      <point x="33" y="396"/>
      <point x="37" y="381"/>
      <point x="42" y="365" type="curve"/>
      <point x="262" y="365" type="line"/>
      <point x="262" y="144" type="line"/>
      <point x="280" y="135"/>
      <point x="296" y="134"/>
      <point x="312" y="144" type="curve"/>
      <point x="312" y="365" type="line"/>
      <point x="533" y="365" type="line"/>
      <point x="538" y="382"/>
      <point x="539" y="398"/>
      <point x="533" y="415" type="curve"/>
      <point x="312" y="415" type="line"/>
    </contour>
  </outline>
</glyph>
<glyph name="comma" format="1">
  <advance width="227"/>
  <unicode hex="002C"/>
  <outline>
    <contour>
      <point x="119" y="-103"/>
      <point x="176" y="-51"/>
      <point x="176" y="45" type="curve" smooth="yes"/>
      <point x="176" y="85"/>
      <point x="147" y="111"/>
      <point x="112" y="111" type="curve" smooth="yes"/>
      <point x="77" y="111"/>
      <point x="50" y="85"/>
      <point x="50" y="50" type="curve" smooth="yes"/>
      <point x="50" y="15"/>
      <point x="78" y="-13"/>
      <point x="113" y="-13" type="curve" smooth="yes"/>
      <point x="116" y="-13" type="line"/>
      <point x="99" y="-68"/>
      <point x="57" y="-101"/>
      <point x="28" y="-117" type="curve"/>
      <point x="33" y="-135"/>
      <point x="43" y="-144"/>
      <point x="58" y="-146" type="curve"/>
    </contour>
  </outline>
</glyph>
<glyph name="hyphen" format="1">
  <advance width="436"/>
  <unicode hex="002D"/>
  <outline>
    <contour>
      <point x="367" y="365" type="line"/>
      <point x="372" y="382"/>
      <point x="373" y="398"/>
      <point x="367" y="415" type="curve"/>
      <point x="70" y="415" type="line"/>
      <point x="61" y="396"/>
      <point x="65" y="381"/>
      <point x="70" y="365" type="curve"/>
    </contour>
  </outline>
</glyph>
<glyph name="zero" format="1">
  <advance width="741"/>
  <unicode hex="0030"/>
  <outline>
    <contour>
      <point x="587" y="-20"/>
      <point x="695" y="164"/>
      <point x="695" y="386" type="curve" smooth="yes"/>
      <point x="695" y="637"/>
      <point x="586" y="819"/>
      <point x="375" y="819" type="curve" smooth="yes"/>
      <point x="164" y="819"/>
      <point x="55" y="637"/>
      <point x="55" y="386" type="curve" smooth="yes"/>
      <point x="55" y="164"/>
      <point x="163" y="-20"/>
      <point x="375" y="-20" type="curve" smooth="yes"/>
    </contour>
    <contour>
      <point x="265" y="25"/>
      <point x="175" y="159"/>
      <point x="175" y="411" type="curve" smooth="yes"/>
      <point x="175" y="637"/>
      <point x="238" y="774"/>
      <point x="375" y="774" type="curve" smooth="yes"/>
      <point x="512" y="774"/>
      <point x="575" y="637"/>
      <point x="575" y="411" type="curve" smooth="yes"/>
      <point x="575" y="159"/>
      <point x="485" y="25"/>
      <point x="375" y="25" type="curve" smooth="yes"/>
    </contour>
  </outline>
</glyph>
<glyph name="four" format="1">
  <advance width="614"/>
  <unicode hex="0034"/>
  <outline>
    <contour>
      <point x="348" y="560" type="line"/>
      <point x="348" y="269" type="line"/>
      <point x="83" y="269" type="line"/>
      <point x="308" y="583" type="line"/>
      <point x="354" y="662" type="line"/>
      <point x="356" y="660" type="line"/>
    </contour>
    <contour>
      <point x="450" y="806" type="line"/>
      <point x="446" y="809"/>
      <point x="442" y="811"/>
      <point x="438" y="812" type="curve"/>
      <point x="389" y="807" type="line"/>
      <point x="16" y="269" type="line"/>
      <point x="16" y="242"/>
      <point x="20" y="219"/>
      <point x="26" y="198" type="curve"/>
      <point x="348" y="198" type="line"/>
      <point x="348" y="174" type="line" smooth="yes"/>
      <point x="348" y="133"/>
      <point x="347" y="88"/>
      <point x="344" y="47" type="curve"/>
      <point x="245" y="36" type="line"/>
      <point x="243" y="29"/>
      <point x="242" y="23"/>
      <point x="242" y="16" type="curve" smooth="yes"/>
      <point x="242" y="10"/>
      <point x="243" y="3"/>
      <point x="245" y="-3" type="curve"/>
      <point x="287" y="-2"/>
      <point x="351" y="-1"/>
      <point x="395" y="-1" type="curve" smooth="yes"/>
      <point x="439" y="-1"/>
      <point x="509" y="-2"/>
      <point x="551" y="-4" type="curve"/>
      <point x="552" y="3"/>
      <point x="553" y="10"/>
      <point x="553" y="18" type="curve" smooth="yes"/>
      <point x="553" y="24"/>
      <point x="552" y="30"/>
      <point x="551" y="36" type="curve"/>
      <point x="450" y="51" type="line"/>
      <point x="450" y="198" type="line"/>
      <point x="557" y="198" type="line"/>
      <point x="557" y="221"/>
      <point x="558" y="250"/>
      <point x="559" y="282" type="curve"/>
      <point x="529" y="276"/>
      <point x="485" y="271"/>
      <point x="450" y="269" type="curve"/>
    </contour>
  </outline>
</glyph>
<glyph name="five" format="1">
  <advance width="554"/>
  <unicode hex="0035"/>
  <outline>
    <contour>
      <point x="221" y="697" type="line"/>
      <point x="363" y="696" type="line"/>
      <point x="398" y="694"/>
      <point x="442" y="689"/>
      <point x="472" y="683" type="curve"/>
      <point x="471" y="715"/>
      <point x="470" y="773"/>
      <point x="470" y="796" type="curve"/>
      <point x="221" y="796" type="line"/>
      <point x="86" y="796" type="line"/>
      <point x="86" y="456" type="line"/>
      <point x="121" y="462"/>
      <point x="151" y="465"/>
      <point x="179" y="465" type="curve" smooth="yes"/>
      <point x="331" y="465"/>
      <point x="381" y="377"/>
      <point x="381" y="248" type="curve" smooth="yes"/>
      <point x="381" y="118"/>
      <point x="354" y="22"/>
      <point x="250" y="22" type="curve" smooth="yes"/>
      <point x="188" y="22"/>
      <point x="146" y="40"/>
      <point x="125" y="152" type="curve"/>
      <point x="71" y="153"/>
      <point x="39" y="149"/>
      <point x="22" y="131" type="curve"/>
      <point x="22" y="27"/>
      <point x="120" y="-20"/>
      <point x="238" y="-20" type="curve" smooth="yes"/>
      <point x="413" y="-20"/>
      <point x="498" y="93"/>
      <point x="498" y="257" type="curve" smooth="yes"/>
      <point x="498" y="407"/>
      <point x="419" y="518"/>
      <point x="215" y="518" type="curve" smooth="yes"/>
      <point x="194" y="518"/>
      <point x="172" y="516"/>
      <point x="148" y="514" type="curve"/>
      <point x="149" y="697" type="line"/>
    </contour>
  </outline>
</glyph>
<glyph name="six" format="1">
  <advance width="605"/>
  <unicode hex="0036"/>
  <outline>
    <contour>
      <point x="43" y="166"/>
      <point x="107" y="-20"/>
      <point x="319" y="-20" type="curve" smooth="yes"/>
      <point x="464" y="-20"/>
      <point x="560" y="105"/>
      <point x="560" y="258" type="curve" smooth="yes"/>
      <point x="560" y="380"/>
      <point x="494" y="508"/>
      <point x="333" y="508" type="curve" smooth="yes"/>
      <point x="249" y="508"/>
      <point x="188" y="471"/>
      <point x="148" y="405" type="curve"/>
      <point x="146" y="405" type="line"/>
      <point x="146" y="642"/>
      <point x="211" y="773"/>
      <point x="315" y="773" type="curve" smooth="yes"/>
      <point x="389" y="773"/>
      <point x="415" y="727"/>
      <point x="431" y="635" type="curve"/>
      <point x="475" y="637"/>
      <point x="516" y="651"/>
      <point x="539" y="666" type="curve"/>
      <point x="525" y="766"/>
      <point x="437" y="819"/>
      <point x="325" y="819" type="curve" smooth="yes"/>
      <point x="152" y="819"/>
      <point x="43" y="658"/>
      <point x="43" y="347" type="curve" smooth="yes"/>
    </contour>
    <contour>
      <point x="445" y="133"/>
      <point x="420" y="25"/>
      <point x="318" y="25" type="curve" smooth="yes"/>
      <point x="216" y="25"/>
      <point x="162" y="98"/>
      <point x="162" y="273" type="curve" smooth="yes"/>
      <point x="162" y="386"/>
      <point x="215" y="461"/>
      <point x="318" y="461" type="curve" smooth="yes"/>
      <point x="406" y="461"/>
      <point x="445" y="364"/>
      <point x="445" y="262" type="curve" smooth="yes"/>
    </contour>
  </outline>
</glyph>
<glyph name="eight" format="1">
  <advance width="606"/>
  <unicode hex="0038"/>
  <outline>
    <contour>
      <point x="45" y="72"/>
      <point x="131" y="-20"/>
      <point x="296" y="-20" type="curve" smooth="yes"/>
      <point x="474" y="-20"/>
      <point x="560" y="98"/>
      <point x="560" y="207" type="curve" smooth="yes"/>
      <point x="560" y="321"/>
      <point x="486" y="375"/>
      <point x="403" y="418" type="curve"/>
      <point x="474" y="464"/>
      <point x="526" y="526"/>
      <point x="526" y="620" type="curve" smooth="yes"/>
      <point x="526" y="733"/>
      <point x="452" y="819"/>
      <point x="299" y="819" type="curve" smooth="yes"/>
      <point x="162" y="819"/>
      <point x="68" y="718"/>
      <point x="68" y="606" type="curve" smooth="yes"/>
      <point x="68" y="504"/>
      <point x="123" y="445"/>
      <point x="191" y="401" type="curve"/>
      <point x="106" y="362"/>
      <point x="45" y="292"/>
      <point x="45" y="197" type="curve" smooth="yes"/>
    </contour>
    <contour>
      <point x="456" y="81"/>
      <point x="408" y="22"/>
      <point x="299" y="22" type="curve" smooth="yes"/>
      <point x="198" y="22"/>
      <point x="154" y="104"/>
      <point x="154" y="194" type="curve" smooth="yes"/>
      <point x="154" y="265"/>
      <point x="183" y="339"/>
      <point x="228" y="379" type="curve"/>
      <point x="335" y="319"/>
      <point x="456" y="281"/>
      <point x="456" y="171" type="curve" smooth="yes"/>
    </contour>
    <contour>
      <point x="174" y="738"/>
      <point x="229" y="776"/>
      <point x="299" y="776" type="curve" smooth="yes"/>
      <point x="382" y="776"/>
      <point x="422" y="704"/>
      <point x="422" y="598" type="curve" smooth="yes"/>
      <point x="422" y="539"/>
      <point x="402" y="478"/>
      <point x="364" y="438" type="curve"/>
      <point x="269" y="484"/>
      <point x="174" y="524"/>
      <point x="174" y="632" type="curve" smooth="yes"/>
    </contour>
  </outline>
</glyph>
<glyph name="nine" format="1">
  <advance width="605"/>
  <unicode hex="0039"/>
  <outline>
    <contour>
      <point x="563" y="633"/>
      <point x="506" y="819"/>
      <point x="294" y="819" type="curve" smooth="yes"/>
      <point x="149" y="819"/>
      <point x="47" y="694"/>
      <point x="47" y="541" type="curve" smooth="yes"/>
      <point x="47" y="419"/>
      <point x="113" y="291"/>
      <point x="274" y="291" type="curve" smooth="yes"/>
      <point x="358" y="291"/>
      <point x="419" y="328"/>
      <point x="459" y="394" type="curve"/>
      <point x="461" y="394" type="line"/>
      <point x="461" y="157"/>
      <point x="396" y="26"/>
      <point x="292" y="26" type="curve" smooth="yes"/>
      <point x="218" y="26"/>
      <point x="192" y="72"/>
      <point x="176" y="164" type="curve"/>
      <point x="132" y="162"/>
      <point x="91" y="148"/>
      <point x="68" y="133" type="curve"/>
      <point x="82" y="33"/>
      <point x="170" y="-20"/>
      <point x="282" y="-20" type="curve" smooth="yes"/>
      <point x="455" y="-20"/>
      <point x="563" y="141"/>
      <point x="563" y="452" type="curve" smooth="yes"/>
    </contour>
    <contour>
      <point x="162" y="678"/>
      <point x="200" y="774"/>
      <point x="289" y="774" type="curve" smooth="yes"/>
      <point x="391" y="774"/>
      <point x="445" y="701"/>
      <point x="445" y="526" type="curve" smooth="yes"/>
      <point x="445" y="413"/>
      <point x="392" y="338"/>
      <point x="289" y="338" type="curve" smooth="yes"/>
      <point x="201" y="338"/>
      <point x="162" y="435"/>
      <point x="162" y="537" type="curve" smooth="yes"/>
    </contour>
  </outline>
</glyph>
<glyph name="less" format="1">
  <advance width="710"/>
  <unicode hex="003C"/>
  <outline>
    <contour>
      <point x="121" y="406" type="line"/>
      <point x="627" y="628" type="line"/>
      <point x="630" y="639"/>
      <point x="632" y="651"/>
      <point x="632" y="662" type="curve" smooth="yes"/>
      <point x="632" y="672"/>
      <point x="630" y="682"/>
      <point x="627" y="693" type="curve"/>
      <point x="38" y="436" type="line"/>
      <point x="33" y="414"/>
      <point x="35" y="395"/>
      <point x="38" y="376" type="curve"/>
      <point x="627" y="119" type="line"/>
      <point x="630" y="130"/>
      <point x="632" y="142"/>
      <point x="632" y="153" type="curve" smooth="yes"/>
      <point x="632" y="163"/>
      <point x="630" y="173"/>
      <point x="627" y="184" type="curve"/>
    </contour>
  </outline>
</glyph>
<glyph name="equal" format="1">
  <advance width="552"/>
  <unicode hex="003D"/>
  <outline>
    <contour>
      <point x="472" y="425" type="line"/>
      <point x="477" y="442"/>
      <point x="478" y="458"/>
      <point x="472" y="475" type="curve"/>
      <point x="81" y="475" type="line"/>
      <point x="72" y="456"/>
      <point x="76" y="441"/>
      <point x="81" y="425" type="curve"/>
    </contour>
    <contour>
      <point x="472" y="287" type="line"/>
      <point x="477" y="304"/>
      <point x="478" y="320"/>
      <point x="472" y="337" type="curve"/>
      <point x="81" y="337" type="line"/>
      <point x="72" y="318"/>
      <point x="76" y="303"/>
      <point x="81" y="287" type="curve"/>
    </contour>
  </outline>
</glyph>
<glyph name="at" format="1">
  <advance width="1002"/>
  <unicode hex="0040"/>
  <outline>
    <contour>
      <point x="556" y="123"/>
      <point x="572" y="103"/>
      <point x="611" y="103" type="curve" smooth="yes"/>
      <point x="810" y="103"/>
      <point x="965" y="237"/>
      <point x="965" y="442" type="curve" smooth="yes"/>
      <point x="965" y="653"/>
      <point x="799" y="791"/>
      <point x="551" y="791" type="curve" smooth="yes"/>
      <point x="267" y="791"/>
      <point x="55" y="608"/>
      <point x="55" y="313" type="curve" smooth="yes"/>
      <point x="55" y="-2"/>
      <point x="287" y="-157"/>
      <point x="540" y="-157" type="curve" smooth="yes"/>
      <point x="649" y="-157"/>
      <point x="707" y="-134"/>
      <point x="782" y="-90" type="curve"/>
      <point x="765" y="-57" type="line"/>
      <point x="700" y="-93"/>
      <point x="621" y="-111"/>
      <point x="552" y="-111" type="curve" smooth="yes"/>
      <point x="270" y="-111"/>
      <point x="106" y="71"/>
      <point x="106" y="312" type="curve" smooth="yes"/>
      <point x="106" y="559"/>
      <point x="296" y="745"/>
      <point x="553" y="745" type="curve" smooth="yes"/>
      <point x="756" y="745"/>
      <point x="913" y="644"/>
      <point x="913" y="445" type="curve" smooth="yes"/>
      <point x="913" y="247"/>
      <point x="777" y="155"/>
      <point x="656" y="155" type="curve"/>
      <point x="719" y="569" type="line"/>
      <point x="669" y="587"/>
      <point x="635" y="591"/>
      <point x="583" y="591" type="curve" smooth="yes"/>
      <point x="416" y="591"/>
      <point x="298" y="434"/>
      <point x="298" y="240" type="curve" smooth="yes"/>
      <point x="298" y="140"/>
      <point x="335" y="103"/>
      <point x="389" y="103" type="curve" smooth="yes"/>
      <point x="461" y="103"/>
      <point x="521" y="147"/>
      <point x="562" y="196" type="curve"/>
    </contour>
    <contour>
      <point x="391" y="169"/>
      <point x="387" y="208"/>
      <point x="387" y="261" type="curve" smooth="yes"/>
      <point x="387" y="394"/>
      <point x="445" y="551"/>
      <point x="568" y="551" type="curve" smooth="yes"/>
      <point x="590" y="551"/>
      <point x="598" y="550"/>
      <point x="619" y="547" type="curve"/>
      <point x="575" y="252" type="line"/>
      <point x="517" y="193"/>
      <point x="486" y="169"/>
      <point x="439" y="169" type="curve" smooth="yes"/>
    </contour>
  </outline>
</glyph>
<glyph name="B" format="1">
  <advance width="702"/>
  <unicode hex="0042"/>
  <outline>
    <contour>
      <point x="50" y="787"/>
      <point x="49" y="774"/>
      <point x="52" y="762" type="curve"/>
      <point x="133" y="752" type="line"/>
      <point x="133" y="163" type="line" smooth="yes"/>
      <point x="133" y="126"/>
      <point x="133" y="84"/>
      <point x="129" y="46" type="curve"/>
      <point x="46" y="35" type="line"/>
      <point x="42" y="23"/>
      <point x="42" y="11"/>
      <point x="46" y="-1" type="curve"/>
      <point x="59" y="-1"/>
      <point x="71" y="0"/>
      <point x="84" y="0" type="curve" smooth="yes"/>
      <point x="185" y="0"/>
      <point x="272" y="-13"/>
      <point x="356" y="-13" type="curve" smooth="yes"/>
      <point x="555" y="-13"/>
      <point x="653" y="78"/>
      <point x="653" y="222" type="curve" smooth="yes"/>
      <point x="653" y="330"/>
      <point x="578" y="419"/>
      <point x="450" y="438" type="curve"/>
      <point x="450" y="441" type="line"/>
      <point x="562" y="474"/>
      <point x="612" y="530"/>
      <point x="612" y="613" type="curve" smooth="yes"/>
      <point x="612" y="722"/>
      <point x="536" y="807"/>
      <point x="353" y="807" type="curve" smooth="yes"/>
      <point x="326" y="807" type="line" smooth="yes"/>
      <point x="257" y="807"/>
      <point x="147" y="799"/>
      <point x="52" y="799" type="curve"/>
    </contour>
    <contour>
      <point x="320" y="406" type="line" smooth="yes"/>
      <point x="461" y="406"/>
      <point x="534" y="319"/>
      <point x="534" y="221" type="curve" smooth="yes"/>
      <point x="534" y="99"/>
      <point x="490" y="33"/>
      <point x="321" y="33" type="curve"/>
      <point x="289" y="35"/>
      <point x="268" y="39"/>
      <point x="240" y="44" type="curve"/>
      <point x="240" y="406" type="line"/>
    </contour>
    <contour>
      <point x="425" y="765"/>
      <point x="496" y="711"/>
      <point x="496" y="607" type="curve" smooth="yes"/>
      <point x="496" y="509"/>
      <point x="444" y="456"/>
      <point x="318" y="456" type="curve" smooth="yes"/>
      <point x="240" y="456" type="line"/>
      <point x="240" y="633" type="line" smooth="yes"/>
      <point x="240" y="670"/>
      <point x="240" y="720"/>
      <point x="244" y="758" type="curve"/>
      <point x="272" y="764"/>
      <point x="299" y="765"/>
      <point x="327" y="765" type="curve" smooth="yes"/>
    </contour>
  </outline>
</glyph>
<glyph name="F" format="1">
  <advance width="622"/>
  <unicode hex="0046"/>
  <outline>
    <contour>
      <point x="133" y="163" type="line" smooth="yes"/>
      <point x="133" y="126"/>
      <point x="133" y="84"/>
      <point x="129" y="46" type="curve"/>
      <point x="46" y="34" type="line"/>
      <point x="42" y="22"/>
      <point x="42" y="10"/>
      <point x="46" y="-2" type="curve"/>
      <point x="88" y="-1"/>
      <point x="139" y="0"/>
      <point x="189" y="0" type="curve" smooth="yes"/>
      <point x="239" y="0"/>
      <point x="289" y="-1"/>
      <point x="331" y="-3" type="curve"/>
      <point x="333" y="9"/>
      <point x="334" y="22"/>
      <point x="331" y="34" type="curve"/>
      <point x="240" y="44" type="line"/>
      <point x="240" y="399" type="line"/>
      <point x="401" y="396" type="line"/>
      <point x="423" y="292" type="line"/>
      <point x="435" y="288"/>
      <point x="447" y="288"/>
      <point x="459" y="292" type="curve"/>
      <point x="457" y="334"/>
      <point x="456" y="378"/>
      <point x="456" y="422" type="curve" smooth="yes"/>
      <point x="456" y="466"/>
      <point x="457" y="509"/>
      <point x="460" y="551" type="curve"/>
      <point x="448" y="553"/>
      <point x="435" y="554"/>
      <point x="423" y="551" type="curve"/>
      <point x="400" y="453" type="line"/>
      <point x="240" y="450" type="line"/>
      <point x="240" y="745" type="line"/>
      <point x="510" y="745" type="line"/>
      <point x="557" y="564" type="line"/>
      <point x="569" y="561"/>
      <point x="582" y="562"/>
      <point x="594" y="564" type="curve"/>
      <point x="593" y="796" type="line"/>
      <point x="189" y="796" type="line"/>
      <point x="52" y="799" type="line"/>
      <point x="48" y="787"/>
      <point x="48" y="775"/>
      <point x="52" y="763" type="curve"/>
      <point x="133" y="752" type="line"/>
    </contour>
  </outline>
</glyph>
<glyph name="G" format="1">
  <advance width="846"/>
  <unicode hex="0047"/>
  <outline>
    <contour>
      <point x="689" y="-18" type="line"/>
      <point x="701" y="-20"/>
      <point x="714" y="-21"/>
      <point x="726" y="-18" type="curve"/>
      <point x="736" y="92" type="line"/>
      <point x="736" y="193" type="line" smooth="yes"/>
      <point x="736" y="230"/>
      <point x="736" y="272"/>
      <point x="740" y="310" type="curve"/>
      <point x="823" y="322" type="line"/>
      <point x="827" y="334"/>
      <point x="827" y="346"/>
      <point x="823" y="358" type="curve"/>
      <point x="780" y="356"/>
      <point x="733" y="355"/>
      <point x="685" y="355" type="curve" smooth="yes"/>
      <point x="637" y="355"/>
      <point x="589" y="356"/>
      <point x="548" y="359" type="curve"/>
      <point x="546" y="347"/>
      <point x="545" y="334"/>
      <point x="548" y="322" type="curve"/>
      <point x="629" y="312" type="line"/>
      <point x="629" y="99" type="line"/>
      <point x="573" y="67"/>
      <point x="506" y="46"/>
      <point x="438" y="46" type="curve" smooth="yes"/>
      <point x="280" y="46"/>
      <point x="176" y="199"/>
      <point x="176" y="412" type="curve" smooth="yes"/>
      <point x="176" y="607"/>
      <point x="283" y="771"/>
      <point x="455" y="771" type="curve" smooth="yes"/>
      <point x="510" y="771"/>
      <point x="577" y="765"/>
      <point x="632" y="731" type="curve"/>
      <point x="664" y="564" type="line"/>
      <point x="676" y="561"/>
      <point x="709" y="562"/>
      <point x="721" y="564" type="curve"/>
      <point x="721" y="756" type="line"/>
      <point x="642" y="797"/>
      <point x="557" y="816"/>
      <point x="467" y="816" type="curve" smooth="yes"/>
      <point x="199" y="816"/>
      <point x="52" y="600"/>
      <point x="52" y="395" type="curve" smooth="yes"/>
      <point x="52" y="192"/>
      <point x="173" y="-20"/>
      <point x="439" y="-20" type="curve" smooth="yes"/>
      <point x="524" y="-20"/>
      <point x="600" y="18"/>
      <point x="663" y="64" type="curve"/>
    </contour>
  </outline>
</glyph>
<glyph name="H" format="1">
  <advance width="875"/>
  <unicode hex="0048"/>
  <outline>
    <contour>
      <point x="741" y="44" type="line"/>
      <point x="741" y="633" type="line" smooth="yes"/>
      <point x="741" y="670"/>
      <point x="741" y="712"/>
      <point x="745" y="750" type="curve"/>
      <point x="828" y="762" type="line"/>
      <point x="832" y="774"/>
      <point x="832" y="786"/>
      <point x="828" y="798" type="curve"/>
      <point x="785" y="796"/>
      <point x="738" y="795"/>
      <point x="690" y="795" type="curve" smooth="yes"/>
      <point x="642" y="795"/>
      <point x="594" y="796"/>
      <point x="553" y="799" type="curve"/>
      <point x="551" y="787"/>
      <point x="550" y="774"/>
      <point x="553" y="762" type="curve"/>
      <point x="634" y="752" type="line"/>
      <point x="634" y="532" type="line"/>
      <point x="634" y="437" type="line"/>
      <point x="240" y="437" type="line"/>
      <point x="240" y="633" type="line" smooth="yes"/>
      <point x="240" y="670"/>
      <point x="240" y="712"/>
      <point x="244" y="750" type="curve"/>
      <point x="327" y="762" type="line"/>
      <point x="331" y="774"/>
      <point x="331" y="786"/>
      <point x="327" y="798" type="curve"/>
      <point x="284" y="796"/>
      <point x="237" y="795"/>
      <point x="189" y="795" type="curve" smooth="yes"/>
      <point x="141" y="795"/>
      <point x="93" y="796"/>
      <point x="52" y="799" type="curve"/>
      <point x="50" y="787"/>
      <point x="49" y="774"/>
      <point x="52" y="762" type="curve"/>
      <point x="133" y="752" type="line"/>
      <point x="133" y="163" type="line" smooth="yes"/>
      <point x="133" y="126"/>
      <point x="133" y="84"/>
      <point x="129" y="46" type="curve"/>
      <point x="46" y="34" type="line"/>
      <point x="42" y="22"/>
      <point x="42" y="10"/>
      <point x="46" y="-2" type="curve"/>
      <point x="88" y="-1"/>
      <point x="136" y="0"/>
      <point x="184" y="0" type="curve" smooth="yes"/>
      <point x="232" y="0"/>
      <point x="279" y="-1"/>
      <point x="321" y="-3" type="curve"/>
      <point x="323" y="9"/>
      <point x="324" y="22"/>
      <point x="321" y="34" type="curve"/>
      <point x="240" y="44" type="line"/>
      <point x="240" y="387" type="line"/>
      <point x="634" y="387" type="line"/>
      <point x="634" y="163" type="line" smooth="yes"/>
      <point x="634" y="126"/>
      <point x="634" y="84"/>
      <point x="630" y="46" type="curve"/>
      <point x="547" y="34" type="line"/>
      <point x="543" y="22"/>
      <point x="543" y="10"/>
      <point x="547" y="-2" type="curve"/>
      <point x="589" y="-1"/>
      <point x="637" y="0"/>
      <point x="685" y="0" type="curve" smooth="yes"/>
      <point x="733" y="0"/>
      <point x="780" y="-1"/>
      <point x="822" y="-3" type="curve"/>
      <point x="824" y="9"/>
      <point x="825" y="22"/>
      <point x="822" y="34" type="curve"/>
    </contour>
  </outline>
</glyph>
<glyph name="I" format="1">
  <advance width="374"/>
  <unicode hex="0049"/>
  <outline>
    <contour>
      <point x="133" y="752" type="line"/>
      <point x="133" y="163" type="line" smooth="yes"/>
      <point x="133" y="126"/>
      <point x="133" y="84"/>
      <point x="129" y="46" type="curve"/>
      <point x="46" y="34" type="line"/>
      <point x="42" y="22"/>
      <point x="42" y="10"/>
      <point x="46" y="-2" type="curve"/>
      <point x="88" y="-1"/>
      <point x="136" y="0"/>
      <point x="184" y="0" type="curve" smooth="yes"/>
      <point x="232" y="0"/>
      <point x="279" y="-1"/>
      <point x="321" y="-3" type="curve"/>
      <point x="323" y="9"/>
      <point x="324" y="22"/>
      <point x="321" y="34" type="curve"/>
      <point x="240" y="44" type="line"/>
      <point x="240" y="633" type="line" smooth="yes"/>
      <point x="240" y="670"/>
      <point x="240" y="712"/>
      <point x="244" y="750" type="curve"/>
      <point x="327" y="762" type="line"/>
      <point x="331" y="774"/>
      <point x="331" y="786"/>
      <point x="327" y="798" type="curve"/>
      <point x="284" y="796"/>
      <point x="237" y="795"/>
      <point x="189" y="795" type="curve" smooth="yes"/>
      <point x="141" y="795"/>
      <point x="93" y="796"/>
      <point x="52" y="799" type="curve"/>
      <point x="50" y="787"/>
      <point x="49" y="774"/>
      <point x="52" y="762" type="curve"/>
    </contour>
    <contour>
      <point x="185" y="831" type="move" name="top"/>
    </contour>
  </outline>
</glyph>
<glyph name="J" format="1">
  <advance width="362"/>
  <unicode hex="004A"/>
  <outline>
    <contour>
      <point x="235" y="633" type="line" smooth="yes"/>
      <point x="235" y="670"/>
      <point x="235" y="712"/>
      <point x="239" y="750" type="curve"/>
      <point x="322" y="763" type="line"/>
      <point x="326" y="775"/>
      <point x="326" y="787"/>
      <point x="322" y="799" type="curve"/>
      <point x="274" y="797"/>
      <point x="217" y="796"/>
      <point x="161" y="796" type="curve" smooth="yes"/>
      <point x="117" y="796"/>
      <point x="74" y="797"/>
      <point x="37" y="799" type="curve"/>
      <point x="35" y="787"/>
      <point x="34" y="774"/>
      <point x="37" y="762" type="curve"/>
      <point x="128" y="752" type="line"/>
      <point x="128" y="50" type="line" smooth="yes"/>
      <point x="128" y="-100"/>
      <point x="115" y="-188"/>
      <point x="52" y="-188" type="curve" smooth="yes"/>
      <point x="25" y="-188"/>
      <point x="19" y="-167"/>
      <point x="12" y="-92" type="curve"/>
      <point x="-6" y="-88"/>
      <point x="-23" y="-86"/>
      <point x="-37" y="-86" type="curve" smooth="yes"/>
      <point x="-67" y="-86"/>
      <point x="-86" y="-95"/>
      <point x="-91" y="-113" type="curve"/>
      <point x="-90" y="-199"/>
      <point x="-48" y="-229"/>
      <point x="43" y="-229" type="curve" smooth="yes"/>
      <point x="149" y="-229"/>
      <point x="235" y="-112"/>
      <point x="235" y="78" type="curve" smooth="yes"/>
    </contour>
  </outline>
</glyph>
<glyph name="K" format="1">
  <advance width="742"/>
  <unicode hex="004B"/>
  <outline>
    <contour>
      <point x="366" y="453" type="line"/>
      <point x="538" y="661" type="line" smooth="yes"/>
      <point x="575" y="705"/>
      <point x="589" y="719"/>
      <point x="629" y="750" type="curve"/>
      <point x="696" y="762" type="line"/>
      <point x="700" y="774"/>
      <point x="700" y="786"/>
      <point x="696" y="798" type="curve"/>
      <point x="653" y="796"/>
      <point x="617" y="795"/>
      <point x="580" y="795" type="curve" smooth="yes"/>
      <point x="543" y="795"/>
      <point x="506" y="796"/>
      <point x="465" y="799" type="curve"/>
      <point x="463" y="787"/>
      <point x="462" y="774"/>
      <point x="465" y="762" type="curve"/>
      <point x="546" y="752" type="line"/>
      <point x="293" y="437" type="line"/>
      <point x="240" y="437" type="line"/>
      <point x="240" y="633" type="line" smooth="yes"/>
      <point x="240" y="670"/>
      <point x="240" y="712"/>
      <point x="244" y="750" type="curve"/>
      <point x="327" y="762" type="line"/>
      <point x="331" y="774"/>
      <point x="331" y="786"/>
      <point x="327" y="798" type="curve"/>
      <point x="284" y="796"/>
      <point x="237" y="795"/>
      <point x="189" y="795" type="curve" smooth="yes"/>
      <point x="141" y="795"/>
      <point x="93" y="796"/>
      <point x="52" y="799" type="curve"/>
      <point x="50" y="787"/>
      <point x="49" y="774"/>
      <point x="52" y="762" type="curve"/>
      <point x="133" y="752" type="line"/>
      <point x="133" y="163" type="line" smooth="yes"/>
      <point x="133" y="126"/>
      <point x="133" y="84"/>
      <point x="129" y="46" type="curve"/>
      <point x="46" y="34" type="line"/>
      <point x="42" y="22"/>
      <point x="42" y="10"/>
      <point x="46" y="-2" type="curve"/>
      <point x="88" y="-1"/>
      <point x="136" y="0"/>
      <point x="184" y="0" type="curve" smooth="yes"/>
      <point x="232" y="0"/>
      <point x="279" y="-1"/>
      <point x="321" y="-3" type="curve"/>
      <point x="323" y="9"/>
      <point x="324" y="22"/>
      <point x="321" y="34" type="curve"/>
      <point x="240" y="44" type="line"/>
      <point x="240" y="386" type="line"/>
      <point x="297" y="386" type="line"/>
      <point x="465" y="155" type="line" smooth="yes"/>
      <point x="497" y="110"/>
      <point x="524" y="74"/>
      <point x="536" y="49" type="curve"/>
      <point x="454" y="35" type="line"/>
      <point x="451" y="23"/>
      <point x="451" y="11"/>
      <point x="455" y="-1" type="curve"/>
      <point x="489" y="2"/>
      <point x="531" y="3"/>
      <point x="574" y="3" type="curve" smooth="yes"/>
      <point x="640" y="3"/>
      <point x="710" y="1"/>
      <point x="760" y="0" type="curve"/>
      <point x="762" y="12"/>
      <point x="762" y="25"/>
      <point x="759" y="37" type="curve"/>
      <point x="681" y="45" type="line"/>
      <point x="662" y="64"/>
      <point x="616" y="120"/>
      <point x="597" y="147" type="curve"/>
    </contour>
  </outline>
</glyph>
<glyph name="N" format="1">
  <advance width="880"/>
  <unicode hex="004E"/>
  <outline>
    <contour>
      <point x="697" y="268" type="line" smooth="yes"/>
      <point x="697" y="229"/>
      <point x="699" y="192"/>
      <point x="702" y="156" type="curve"/>
      <point x="682" y="189"/>
      <point x="663" y="226"/>
      <point x="645" y="250" type="curve" smooth="yes"/>
      <point x="244" y="796" type="line"/>
      <point x="48" y="796" type="line"/>
      <point x="44" y="784"/>
      <point x="44" y="774"/>
      <point x="48" y="762" type="curve"/>
      <point x="131" y="750" type="line"/>
      <point x="135" y="712"/>
      <point x="135" y="670"/>
      <point x="135" y="633" type="curve" smooth="yes"/>
      <point x="135" y="44" type="line"/>
      <point x="44" y="34" type="line"/>
      <point x="41" y="22"/>
      <point x="42" y="9"/>
      <point x="44" y="-3" type="curve"/>
      <point x="85" y="-1"/>
      <point x="125" y="0"/>
      <point x="165" y="0" type="curve" smooth="yes"/>
      <point x="205" y="0"/>
      <point x="244" y="-1"/>
      <point x="287" y="-2" type="curve"/>
      <point x="291" y="10"/>
      <point x="291" y="22"/>
      <point x="287" y="34" type="curve"/>
      <point x="194" y="46" type="line"/>
      <point x="190" y="84"/>
      <point x="190" y="126"/>
      <point x="190" y="163" type="curve" smooth="yes"/>
      <point x="190" y="593" type="line" smooth="yes"/>
      <point x="190" y="630"/>
      <point x="189" y="667"/>
      <point x="185" y="704" type="curve"/>
      <point x="209" y="667"/>
      <point x="233" y="631"/>
      <point x="258" y="597" type="curve" smooth="yes"/>
      <point x="699" y="0" type="line"/>
      <point x="752" y="0" type="line"/>
      <point x="752" y="749" type="line"/>
      <point x="843" y="759" type="line"/>
      <point x="846" y="771"/>
      <point x="845" y="784"/>
      <point x="843" y="796" type="curve"/>
      <point x="801" y="793"/>
      <point x="762" y="792"/>
      <point x="722" y="792" type="curve" smooth="yes"/>
      <point x="682" y="792"/>
      <point x="642" y="793"/>
      <point x="600" y="795" type="curve"/>
      <point x="596" y="783"/>
      <point x="596" y="771"/>
      <point x="600" y="759" type="curve"/>
      <point x="693" y="747" type="line"/>
      <point x="697" y="709"/>
      <point x="697" y="667"/>
      <point x="697" y="630" type="curve" smooth="yes"/>
    </contour>
    <contour>
      <point x="446" y="830" type="move" name="top"/>
    </contour>
  </outline>
</glyph>
<glyph name="P" format="1">
  <advance width="661"/>
  <unicode hex="0050"/>
  <outline>
    <contour>
      <point x="50" y="787"/>
      <point x="49" y="774"/>
      <point x="52" y="762" type="curve"/>
      <point x="133" y="752" type="line"/>
      <point x="133" y="163" type="line" smooth="yes"/>
      <point x="133" y="126"/>
      <point x="133" y="84"/>
      <point x="129" y="46" type="curve"/>
      <point x="46" y="34" type="line"/>
      <point x="42" y="22"/>
      <point x="42" y="10"/>
      <point x="46" y="-2" type="curve"/>
      <point x="88" y="-1"/>
      <point x="139" y="0"/>
      <point x="189" y="0" type="curve" smooth="yes"/>
      <point x="239" y="0"/>
      <point x="289" y="-1"/>
      <point x="331" y="-3" type="curve"/>
      <point x="333" y="9"/>
      <point x="334" y="22"/>
      <point x="331" y="34" type="curve"/>
      <point x="240" y="44" type="line"/>
      <point x="240" y="358" type="line"/>
      <point x="275" y="353"/>
      <point x="311" y="352"/>
      <point x="343" y="352" type="curve" smooth="yes"/>
      <point x="497" y="352"/>
      <point x="632" y="448"/>
      <point x="632" y="578" type="curve" smooth="yes"/>
      <point x="632" y="711"/>
      <point x="564" y="807"/>
      <point x="345" y="807" type="curve" smooth="yes"/>
      <point x="207" y="807"/>
      <point x="139" y="798"/>
      <point x="52" y="799" type="curve"/>
    </contour>
    <contour>
      <point x="240" y="633" type="line" smooth="yes"/>
      <point x="240" y="670"/>
      <point x="242" y="720"/>
      <point x="246" y="758" type="curve"/>
      <point x="262" y="761"/>
      <point x="296" y="765"/>
      <point x="320" y="765" type="curve" smooth="yes"/>
      <point x="465" y="765"/>
      <point x="511" y="690"/>
      <point x="511" y="583" type="curve" smooth="yes"/>
      <point x="511" y="502"/>
      <point x="477" y="395"/>
      <point x="330" y="395" type="curve" smooth="yes"/>
      <point x="305" y="395"/>
      <point x="271" y="395"/>
      <point x="240" y="399" type="curve"/>
    </contour>
  </outline>
</glyph>
<glyph name="Q" format="1">
  <advance width="906"/>
  <unicode hex="0051"/>
  <outline>
    <contour>
      <point x="197" y="-129"/>
      <point x="207" y="-138"/>
      <point x="220" y="-145" type="curve"/>
      <point x="259" y="-117"/>
      <point x="293" y="-107"/>
      <point x="325" y="-107" type="curve" smooth="yes"/>
      <point x="354" y="-107"/>
      <point x="380" y="-116"/>
      <point x="407" y="-127" type="curve"/>
      <point x="584" y="-212" type="line"/>
      <point x="623" y="-228"/>
      <point x="659" y="-235"/>
      <point x="690" y="-235" type="curve" smooth="yes"/>
      <point x="770" y="-235"/>
      <point x="826" y="-203"/>
      <point x="863" y="-156" type="curve"/>
      <point x="851" y="-142"/>
      <point x="844" y="-135"/>
      <point x="832" y="-129" type="curve"/>
      <point x="802" y="-150"/>
      <point x="771" y="-161"/>
      <point x="736" y="-161" type="curve" smooth="yes"/>
      <point x="698" y="-161"/>
      <point x="660" y="-152"/>
      <point x="623" y="-136" type="curve" smooth="yes"/>
      <point x="447" y="-62" type="line" smooth="yes"/>
      <point x="425" y="-53"/>
      <point x="405" y="-46"/>
      <point x="386" y="-42" type="curve"/>
      <point x="406" y="-33"/>
      <point x="426" y="-20"/>
      <point x="452" y="-20" type="curve" smooth="yes"/>
      <point x="690" y="-20"/>
      <point x="853" y="173"/>
      <point x="853" y="408" type="curve" smooth="yes"/>
      <point x="853" y="610"/>
      <point x="722" y="816"/>
      <point x="452" y="816" type="curve" smooth="yes"/>
      <point x="217" y="816"/>
      <point x="52" y="617"/>
      <point x="52" y="386" type="curve" smooth="yes"/>
      <point x="52" y="211"/>
      <point x="152" y="32"/>
      <point x="355" y="-10" type="curve"/>
      <point x="240" y="-63"/>
      <point x="217" y="-78"/>
      <point x="189" y="-117" type="curve"/>
    </contour>
    <contour>
      <point x="256" y="35"/>
      <point x="172" y="214"/>
      <point x="172" y="411" type="curve" smooth="yes"/>
      <point x="172" y="597"/>
      <point x="258" y="761"/>
      <point x="451" y="761" type="curve" smooth="yes"/>
      <point x="648" y="761"/>
      <point x="733" y="598"/>
      <point x="733" y="412" type="curve" smooth="yes"/>
      <point x="733" y="216"/>
      <point x="647" y="35"/>
      <point x="451" y="35" type="curve" smooth="yes"/>
    </contour>
  </outline>
</glyph>
<glyph name="S" format="1">
  <advance width="653"/>
  <unicode hex="0053"/>
  <outline>
    <contour>
      <point x="131" y="231" type="line"/>
      <point x="119" y="234"/>
      <point x="86" y="233"/>
      <point x="74" y="231" type="curve"/>
      <point x="74" y="39" type="line"/>
      <point x="147" y="-2"/>
      <point x="212" y="-20"/>
      <point x="304" y="-20" type="curve" smooth="yes"/>
      <point x="472" y="-20"/>
      <point x="586" y="72"/>
      <point x="586" y="208" type="curve" smooth="yes"/>
      <point x="586" y="273"/>
      <point x="549" y="329"/>
      <point x="464" y="392" type="curve"/>
      <point x="260" y="538" type="line" smooth="yes"/>
      <point x="218" y="569"/>
      <point x="196" y="603"/>
      <point x="196" y="656" type="curve" smooth="yes"/>
      <point x="196" y="736"/>
      <point x="255" y="772"/>
      <point x="322" y="772" type="curve" smooth="yes"/>
      <point x="369" y="772"/>
      <point x="420" y="761"/>
      <point x="465" y="731" type="curve"/>
      <point x="497" y="564" type="line"/>
      <point x="509" y="561"/>
      <point x="542" y="562"/>
      <point x="554" y="564" type="curve"/>
      <point x="554" y="756" type="line"/>
      <point x="478" y="797"/>
      <point x="410" y="816"/>
      <point x="324" y="816" type="curve" smooth="yes"/>
      <point x="206" y="816"/>
      <point x="87" y="755"/>
      <point x="87" y="631" type="curve" smooth="yes"/>
      <point x="87" y="545"/>
      <point x="127" y="489"/>
      <point x="180" y="453" type="curve"/>
      <point x="404" y="291" type="line"/>
      <point x="465" y="239"/>
      <point x="468" y="211"/>
      <point x="468" y="168" type="curve" smooth="yes"/>
      <point x="468" y="100"/>
      <point x="427" y="29"/>
      <point x="326" y="29" type="curve" smooth="yes"/>
      <point x="266" y="29"/>
      <point x="212" y="35"/>
      <point x="163" y="69" type="curve"/>
    </contour>
  </outline>
</glyph>
<glyph name="U" format="1">
  <advance width="814"/>
  <unicode hex="0055"/>
  <outline>
    <contour>
      <point x="644" y="254" type="line" smooth="yes"/>
      <point x="644" y="112"/>
      <point x="600" y="44"/>
      <point x="444" y="44" type="curve" smooth="yes"/>
      <point x="285" y="44"/>
      <point x="220" y="101"/>
      <point x="220" y="251" type="curve" smooth="yes"/>
      <point x="220" y="633" type="line" smooth="yes"/>
      <point x="220" y="670"/>
      <point x="220" y="712"/>
      <point x="224" y="750" type="curve"/>
      <point x="307" y="762" type="line"/>
      <point x="311" y="774"/>
      <point x="311" y="786"/>
      <point x="307" y="798" type="curve"/>
      <point x="264" y="796"/>
      <point x="217" y="795"/>
      <point x="169" y="795" type="curve" smooth="yes"/>
      <point x="121" y="795"/>
      <point x="73" y="796"/>
      <point x="32" y="799" type="curve"/>
      <point x="30" y="787"/>
      <point x="29" y="774"/>
      <point x="32" y="762" type="curve"/>
      <point x="113" y="752" type="line"/>
      <point x="113" y="251" type="line" smooth="yes"/>
      <point x="113" y="72"/>
      <point x="211" y="-20"/>
      <point x="411" y="-20" type="curve" smooth="yes"/>
      <point x="633" y="-20"/>
      <point x="694" y="83"/>
      <point x="699" y="260" type="curve"/>
      <point x="699" y="633" type="line" smooth="yes"/>
      <point x="699" y="670"/>
      <point x="699" y="712"/>
      <point x="703" y="750" type="curve"/>
      <point x="766" y="762" type="line"/>
      <point x="766" y="798" type="line"/>
      <point x="723" y="796"/>
      <point x="694" y="795"/>
      <point x="664" y="795" type="curve" smooth="yes"/>
      <point x="634" y="795"/>
      <point x="604" y="796"/>
      <point x="563" y="799" type="curve"/>
      <point x="563" y="762" type="line"/>
      <point x="644" y="752" type="line"/>
    </contour>
    <contour>
      <point x="448" y="830" type="move" name="top"/>
    </contour>
  </outline>
</glyph>
<glyph name="V" format="1">
  <advance width="745"/>
  <unicode hex="0056"/>
  <outline>
    <contour>
      <point x="399" y="122" type="line"/>
      <point x="389" y="163"/>
      <point x="376" y="207"/>
      <point x="363" y="245" type="curve"/>
      <point x="180" y="750" type="line"/>
      <point x="263" y="762" type="line"/>
      <point x="267" y="774"/>
      <point x="267" y="786"/>
      <point x="263" y="798" type="curve"/>
      <point x="220" y="796"/>
      <point x="170" y="795"/>
      <point x="120" y="795" type="curve" smooth="yes"/>
      <point x="70" y="795"/>
      <point x="19" y="796"/>
      <point x="-22" y="799" type="curve"/>
      <point x="-24" y="787"/>
      <point x="-25" y="774"/>
      <point x="-22" y="762" type="curve"/>
      <point x="59" y="752" type="line"/>
      <point x="355" y="-30" type="line"/>
      <point x="390" y="-30" type="line"/>
      <point x="648" y="661" type="line" smooth="yes"/>
      <point x="660" y="693"/>
      <point x="671" y="724"/>
      <point x="688" y="750" type="curve"/>
      <point x="754" y="762" type="line"/>
      <point x="758" y="774"/>
      <point x="758" y="786"/>
      <point x="754" y="798" type="curve"/>
      <point x="711" y="796"/>
      <point x="678" y="795"/>
      <point x="646" y="795" type="curve" smooth="yes"/>
      <point x="613" y="795"/>
      <point x="581" y="796"/>
      <point x="540" y="799" type="curve"/>
      <point x="538" y="787"/>
      <point x="537" y="774"/>
      <point x="540" y="762" type="curve"/>
      <point x="621" y="752" type="line"/>
      <point x="439" y="245" type="line" smooth="yes"/>
      <point x="425" y="206"/>
      <point x="410" y="162"/>
      <point x="400" y="122" type="curve"/>
    </contour>
  </outline>
</glyph>
<glyph name="X" format="1">
  <advance width="794"/>
  <unicode hex="0058"/>
  <outline>
    <contour>
      <point x="724" y="43" type="line"/>
      <point x="442" y="446" type="line"/>
      <point x="605" y="661" type="line" smooth="yes"/>
      <point x="634" y="699"/>
      <point x="655" y="721"/>
      <point x="696" y="750" type="curve"/>
      <point x="759" y="762" type="line"/>
      <point x="763" y="774"/>
      <point x="763" y="786"/>
      <point x="759" y="798" type="curve"/>
      <point x="716" y="796"/>
      <point x="680" y="795"/>
      <point x="643" y="795" type="curve" smooth="yes"/>
      <point x="606" y="795"/>
      <point x="569" y="796"/>
      <point x="528" y="799" type="curve"/>
      <point x="526" y="787"/>
      <point x="525" y="774"/>
      <point x="528" y="762" type="curve"/>
      <point x="609" y="752" type="line"/>
      <point x="412" y="489" type="line"/>
      <point x="278" y="682" type="line"/>
      <point x="265" y="699"/>
      <point x="254" y="715"/>
      <point x="239" y="743" type="curve"/>
      <point x="338" y="762" type="line"/>
      <point x="342" y="774"/>
      <point x="342" y="786"/>
      <point x="338" y="798" type="curve"/>
      <point x="295" y="796"/>
      <point x="236" y="795"/>
      <point x="176" y="795" type="curve" smooth="yes"/>
      <point x="116" y="795"/>
      <point x="56" y="796"/>
      <point x="15" y="799" type="curve"/>
      <point x="13" y="787"/>
      <point x="12" y="774"/>
      <point x="15" y="762" type="curve"/>
      <point x="96" y="752" type="line"/>
      <point x="343" y="393" type="line"/>
      <point x="151" y="135" type="line" smooth="yes"/>
      <point x="125" y="100"/>
      <point x="97" y="72"/>
      <point x="70" y="46" type="curve"/>
      <point x="-3" y="34" type="line"/>
      <point x="-7" y="22"/>
      <point x="-7" y="10"/>
      <point x="-3" y="-2" type="curve"/>
      <point x="39" y="-1"/>
      <point x="76" y="0"/>
      <point x="113" y="0" type="curve" smooth="yes"/>
      <point x="149" y="0"/>
      <point x="185" y="-1"/>
      <point x="227" y="-3" type="curve"/>
      <point x="229" y="9"/>
      <point x="230" y="22"/>
      <point x="227" y="34" type="curve"/>
      <point x="146" y="44" type="line"/>
      <point x="374" y="347" type="line"/>
      <point x="507" y="155" type="line" smooth="yes"/>
      <point x="528" y="126"/>
      <point x="557" y="87"/>
      <point x="575" y="47" type="curve"/>
      <point x="473" y="33" type="line"/>
      <point x="470" y="21"/>
      <point x="470" y="9"/>
      <point x="474" y="-3" type="curve"/>
      <point x="508" y="0"/>
      <point x="554" y="1"/>
      <point x="603" y="1" type="curve" smooth="yes"/>
      <point x="678" y="1"/>
      <point x="758" y="-1"/>
      <point x="808" y="-2" type="curve"/>
      <point x="810" y="10"/>
      <point x="810" y="23"/>
      <point x="807" y="35" type="curve"/>
    </contour>
  </outline>
</glyph>
<glyph name="Y" format="1">
  <advance width="707"/>
  <unicode hex="0059"/>
  <outline>
    <contour>
      <point x="246" y="625" type="line" smooth="yes"/>
      <point x="226" y="660"/>
      <point x="209" y="699"/>
      <point x="191" y="743" type="curve"/>
      <point x="289" y="762" type="line"/>
      <point x="293" y="774"/>
      <point x="293" y="786"/>
      <point x="289" y="798" type="curve"/>
      <point x="246" y="796"/>
      <point x="191" y="795"/>
      <point x="137" y="795" type="curve" smooth="yes"/>
      <point x="82" y="795"/>
      <point x="28" y="796"/>
      <point x="-13" y="799" type="curve"/>
      <point x="-15" y="787"/>
      <point x="-16" y="774"/>
      <point x="-13" y="762" type="curve"/>
      <point x="58" y="752" type="line"/>
      <point x="297" y="344" type="line"/>
      <point x="297" y="163" type="line" smooth="yes"/>
      <point x="297" y="126"/>
      <point x="297" y="84"/>
      <point x="293" y="46" type="curve"/>
      <point x="210" y="34" type="line"/>
      <point x="206" y="22"/>
      <point x="206" y="10"/>
      <point x="210" y="-2" type="curve"/>
      <point x="252" y="-1"/>
      <point x="300" y="0"/>
      <point x="348" y="0" type="curve" smooth="yes"/>
      <point x="396" y="0"/>
      <point x="443" y="-1"/>
      <point x="485" y="-3" type="curve"/>
      <point x="487" y="9"/>
      <point x="488" y="22"/>
      <point x="485" y="34" type="curve"/>
      <point x="404" y="44" type="line"/>
      <point x="404" y="341" type="line"/>
      <point x="600" y="661" type="line"/>
      <point x="624" y="703"/>
      <point x="644" y="725"/>
      <point x="666" y="750" type="curve"/>
      <point x="728" y="762" type="line"/>
      <point x="732" y="774"/>
      <point x="732" y="786"/>
      <point x="728" y="798" type="curve"/>
      <point x="685" y="796"/>
      <point x="650" y="795"/>
      <point x="616" y="795" type="curve" smooth="yes"/>
      <point x="581" y="795"/>
      <point x="547" y="796"/>
      <point x="506" y="799" type="curve"/>
      <point x="504" y="787"/>
      <point x="503" y="774"/>
      <point x="506" y="762" type="curve"/>
      <point x="587" y="752" type="line"/>
      <point x="378" y="399" type="line"/>
    </contour>
    <contour>
      <point x="386" y="830" type="move" name="top"/>
    </contour>
  </outline>
</glyph>
<glyph name="Z" format="1">
  <advance width="679"/>
  <unicode hex="005A"/>
  <outline>
    <contour>
      <point x="172" y="51" type="line"/>
      <point x="611" y="745" type="line"/>
      <point x="615" y="762"/>
      <point x="616" y="780"/>
      <point x="611" y="796" type="curve"/>
      <point x="67" y="796" type="line"/>
      <point x="66" y="564" type="line"/>
      <point x="78" y="562"/>
      <point x="91" y="561"/>
      <point x="103" y="564" type="curve"/>
      <point x="150" y="745" type="line"/>
      <point x="489" y="745" type="line"/>
      <point x="44" y="51" type="line"/>
      <point x="38" y="34"/>
      <point x="40" y="17"/>
      <point x="44" y="0" type="curve"/>
      <point x="624" y="0" type="line"/>
      <point x="625" y="232" type="line"/>
      <point x="613" y="234"/>
      <point x="600" y="235"/>
      <point x="588" y="232" type="curve"/>
      <point x="541" y="51" type="line"/>
    </contour>
  </outline>
</glyph>
<glyph name="asciicircum" format="1">
  <advance width="602"/>
  <unicode hex="005E"/>
  <outline>
    <contour>
      <point x="301" y="642" type="line"/>
      <point x="520" y="428" type="line"/>
      <point x="531" y="431"/>
      <point x="544" y="445"/>
      <point x="547" y="456" type="curve"/>
      <point x="341" y="732" type="line"/>
      <point x="327" y="734"/>
      <point x="314" y="735"/>
      <point x="301" y="735" type="curve" smooth="yes"/>
      <point x="288" y="735"/>
      <point x="274" y="734"/>
      <point x="261" y="732" type="curve"/>
      <point x="55" y="456" type="line"/>
      <point x="58" y="445"/>
      <point x="71" y="431"/>
      <point x="82" y="428" type="curve"/>
    </contour>
  </outline>
</glyph>
<glyph name="underscore" format="1">
  <advance width="627"/>
  <unicode hex="005F"/>
  <outline>
    <contour>
      <point x="629" y="-50" type="line"/>
      <point x="634" y="-33"/>
      <point x="635" y="-17"/>
      <point x="629" y="0" type="curve"/>
      <point x="-2" y="0" type="line"/>
      <point x="-11" y="-19"/>
      <point x="-7" y="-34"/>
      <point x="-2" y="-50" type="curve"/>
    </contour>
  </outline>
</glyph>
<glyph name="a" format="1">
  <advance width="534"/>
  <unicode hex="0061"/>
  <outline>
    <contour>
      <point x="135" y="225"/>
      <point x="219" y="259"/>
      <point x="348" y="266" type="curve"/>
      <point x="348" y="110" type="line"/>
      <point x="305" y="62"/>
      <point x="252" y="38"/>
      <point x="214" y="38" type="curve" smooth="yes"/>
      <point x="160" y="38"/>
      <point x="135" y="63"/>
      <point x="135" y="133" type="curve" smooth="yes"/>
    </contour>
    <contour>
      <point x="348" y="302" type="line"/>
      <point x="170" y="298"/>
      <point x="40" y="241"/>
      <point x="40" y="113" type="curve" smooth="yes"/>
      <point x="40" y="33"/>
      <point x="89" y="-20"/>
      <point x="174" y="-20" type="curve" smooth="yes"/>
      <point x="246" y="-20"/>
      <point x="305" y="13"/>
      <point x="359" y="75" type="curve"/>
      <point x="364" y="6" type="line"/>
      <point x="366" y="-4"/>
      <point x="370" y="-10"/>
      <point x="374" y="-14" type="curve"/>
      <point x="424" y="-7"/>
      <point x="475" y="-2"/>
      <point x="525" y="0" type="curve"/>
      <point x="527" y="13"/>
      <point x="528" y="25"/>
      <point x="525" y="38" type="curve"/>
      <point x="446" y="48" type="line"/>
      <point x="444" y="60"/>
      <point x="443" y="74"/>
      <point x="443" y="91" type="curve" smooth="yes"/>
      <point x="443" y="373" type="line" smooth="yes"/>
      <point x="443" y="512"/>
      <point x="391" y="554"/>
      <point x="265" y="554" type="curve" smooth="yes"/>
      <point x="152" y="554"/>
      <point x="59" y="500"/>
      <point x="59" y="406" type="curve"/>
      <point x="64" y="387"/>
      <point x="79" y="378"/>
      <point x="105" y="378" type="curve" smooth="yes"/>
      <point x="118" y="378"/>
      <point x="134" y="381"/>
      <point x="152" y="385" type="curve"/>
      <point x="166" y="485"/>
      <point x="207" y="515"/>
      <point x="264" y="515" type="curve" smooth="yes"/>
      <point x="325" y="515"/>
      <point x="348" y="464"/>
      <point x="348" y="353" type="curve" smooth="yes"/>
    </contour>
    <contour>
      <point x="265" y="570" type="move" name="top"/>
    </contour>
  </outline>
</glyph>
<glyph name="c" format="1">
  <advance width="512"/>
  <unicode hex="0063"/>
  <outline>
    <contour>
      <point x="478" y="510"/>
      <point x="376" y="554"/>
      <point x="286" y="554" type="curve" smooth="yes"/>
      <point x="170" y="554"/>
      <point x="45" y="458"/>
      <point x="45" y="266" type="curve" smooth="yes"/>
      <point x="45" y="68"/>
      <point x="149" y="-20"/>
      <point x="280" y="-20" type="curve" smooth="yes"/>
      <point x="356" y="-20"/>
      <point x="415" y="7"/>
      <point x="463" y="58" type="curve"/>
      <point x="457" y="75"/>
      <point x="453" y="81"/>
      <point x="440" y="89" type="curve"/>
      <point x="400" y="55"/>
      <point x="352" y="27"/>
      <point x="291" y="27" type="curve" smooth="yes"/>
      <point x="194" y="27"/>
      <point x="147" y="114"/>
      <point x="147" y="264" type="curve" smooth="yes"/>
      <point x="147" y="417"/>
      <point x="212" y="514"/>
      <point x="288" y="514" type="curve" smooth="yes"/>
      <point x="328" y="514"/>
      <point x="366" y="485"/>
      <point x="379" y="385" type="curve"/>
      <point x="433" y="384"/>
      <point x="461" y="388"/>
      <point x="478" y="406" type="curve"/>
    </contour>
  </outline>
</glyph>
<glyph name="f" format="1">
  <advance width="377"/>
  <unicode hex="0066"/>
  <outline>
    <contour>
      <point x="169" y="816"/>
      <point x="111" y="682"/>
      <point x="111" y="569" type="curve" smooth="yes"/>
      <point x="111" y="501" type="line"/>
      <point x="40" y="501" type="line"/>
      <point x="36" y="488"/>
      <point x="36" y="475"/>
      <point x="40" y="462" type="curve"/>
      <point x="111" y="451" type="line"/>
      <point x="111" y="174" type="line" smooth="yes"/>
      <point x="111" y="133"/>
      <point x="110" y="92"/>
      <point x="107" y="52" type="curve"/>
      <point x="34" y="36" type="line"/>
      <point x="29" y="23"/>
      <point x="28" y="10"/>
      <point x="34" y="-3" type="curve"/>
      <point x="76" y="-2"/>
      <point x="125" y="-1"/>
      <point x="172" y="-1" type="curve" smooth="yes"/>
      <point x="219" y="-1"/>
      <point x="285" y="-2"/>
      <point x="327" y="-4" type="curve"/>
      <point x="331" y="9"/>
      <point x="331" y="23"/>
      <point x="327" y="36" type="curve"/>
      <point x="206" y="56" type="line"/>
      <point x="206" y="441" type="line"/>
      <point x="347" y="462" type="line"/>
      <point x="351" y="475"/>
      <point x="351" y="488"/>
      <point x="347" y="501" type="curve"/>
      <point x="206" y="501" type="line"/>
      <point x="206" y="718"/>
      <point x="225" y="782"/>
      <point x="275" y="782" type="curve" smooth="yes"/>
      <point x="299" y="782"/>
      <point x="318" y="761"/>
      <point x="326" y="677" type="curve"/>
      <point x="380" y="676"/>
      <point x="409" y="680"/>
      <point x="426" y="698" type="curve"/>
      <point x="426" y="791"/>
      <point x="360" y="816"/>
      <point x="282" y="816" type="curve" smooth="yes"/>
    </contour>
  </outline>
</glyph>
<glyph name="i" format="1">
  <advance width="310"/>
  <unicode hex="0069"/>
  <outline>
    <contour>
      <point x="208" y="372" type="line" smooth="yes"/>
      <point x="208" y="462"/>
      <point x="208" y="508"/>
      <point x="213" y="534" type="curve"/>
      <point x="212" y="541"/>
      <point x="209" y="547"/>
      <point x="203" y="554" type="curve"/>
      <point x="145" y="545"/>
      <point x="86" y="537"/>
      <point x="31" y="533" type="curve"/>
      <point x="29" y="520"/>
      <point x="28" y="508"/>
      <point x="31" y="495" type="curve"/>
      <point x="110" y="485" type="line"/>
      <point x="113" y="453"/>
      <point x="113" y="424"/>
      <point x="113" y="387" type="curve" smooth="yes"/>
      <point x="113" y="174" type="line" smooth="yes"/>
      <point x="113" y="133"/>
      <point x="112" y="88"/>
      <point x="109" y="47" type="curve"/>
      <point x="30" y="36" type="line"/>
      <point x="26" y="23"/>
      <point x="26" y="10"/>
      <point x="30" y="-3" type="curve"/>
      <point x="72" y="-2"/>
      <point x="116" y="-1"/>
      <point x="160" y="-1" type="curve" smooth="yes"/>
      <point x="204" y="-1"/>
      <point x="247" y="-2"/>
      <point x="289" y="-4" type="curve"/>
      <point x="291" y="9"/>
      <point x="292" y="23"/>
      <point x="289" y="36" type="curve"/>
      <point x="208" y="51" type="line"/>
    </contour>
    <contour>
      <point x="71" y="695"/>
      <point x="108" y="675"/>
      <point x="148" y="685" type="curve" smooth="yes"/>
      <point x="167" y="689"/>
      <point x="187" y="696"/>
      <point x="198" y="709" type="curve" smooth="yes"/>
      <point x="209" y="723"/>
      <point x="209" y="745"/>
      <point x="205" y="764" type="curve"/>
      <point x="196" y="798"/>
      <point x="157" y="818"/>
      <point x="118" y="808" type="curve" smooth="yes"/>
      <point x="101" y="804"/>
      <point x="81" y="796"/>
      <point x="71" y="784" type="curve" smooth="yes"/>
      <point x="58" y="769"/>
      <point x="58" y="747"/>
      <point x="62" y="729" type="curve" smooth="yes"/>
    </contour>
  </outline>
</glyph>
<glyph name="k" format="1">
  <advance width="598"/>
  <unicode hex="006B"/>
  <outline>
    <contour>
      <point x="207" y="288" type="line"/>
      <point x="410" y="46" type="line"/>
      <point x="344" y="37" type="line"/>
      <point x="340" y="24"/>
      <point x="340" y="11"/>
      <point x="344" y="-2" type="curve"/>
      <point x="386" y="-1"/>
      <point x="429" y="0"/>
      <point x="471" y="0" type="curve" smooth="yes"/>
      <point x="513" y="0"/>
      <point x="555" y="-1"/>
      <point x="597" y="-3" type="curve"/>
      <point x="599" y="10"/>
      <point x="600" y="24"/>
      <point x="597" y="37" type="curve"/>
      <point x="519" y="57" type="line"/>
      <point x="301" y="318" type="line"/>
      <point x="478" y="484" type="line"/>
      <point x="557" y="498" type="line"/>
      <point x="561" y="511"/>
      <point x="561" y="524"/>
      <point x="557" y="536" type="curve"/>
      <point x="514" y="534"/>
      <point x="484" y="533"/>
      <point x="453" y="533" type="curve" smooth="yes"/>
      <point x="422" y="533"/>
      <point x="391" y="534"/>
      <point x="350" y="537" type="curve"/>
      <point x="348" y="525"/>
      <point x="347" y="511"/>
      <point x="350" y="498" type="curve"/>
      <point x="416" y="490" type="line"/>
    </contour>
    <contour>
      <point x="196" y="634" type="line" smooth="yes"/>
      <point x="196" y="724"/>
      <point x="196" y="770"/>
      <point x="201" y="796" type="curve"/>
      <point x="200" y="803"/>
      <point x="197" y="809"/>
      <point x="191" y="816" type="curve"/>
      <point x="133" y="807"/>
      <point x="75" y="799"/>
      <point x="20" y="795" type="curve"/>
      <point x="18" y="782"/>
      <point x="17" y="770"/>
      <point x="20" y="757" type="curve"/>
      <point x="102" y="747" type="line"/>
      <point x="102" y="174" type="line" smooth="yes"/>
      <point x="102" y="133"/>
      <point x="101" y="88"/>
      <point x="98" y="47" type="curve"/>
      <point x="19" y="36" type="line"/>
      <point x="15" y="23"/>
      <point x="15" y="10"/>
      <point x="19" y="-3" type="curve"/>
      <point x="61" y="-2"/>
      <point x="105" y="-1"/>
      <point x="149" y="-1" type="curve" smooth="yes"/>
      <point x="192" y="-1"/>
      <point x="235" y="-2"/>
      <point x="277" y="-4" type="curve"/>
      <point x="279" y="9"/>
      <point x="280" y="23"/>
      <point x="277" y="36" type="curve"/>
      <point x="196" y="51" type="line"/>
    </contour>
  </outline>
</glyph>
<glyph name="l" format="1">
  <advance width="299"/>
  <unicode hex="006C"/>
  <outline>
    <contour>
      <point x="197" y="634" type="line" smooth="yes"/>
      <point x="197" y="724"/>
      <point x="197" y="770"/>
      <point x="202" y="796" type="curve"/>
      <point x="201" y="803"/>
      <point x="198" y="809"/>
      <point x="192" y="816" type="curve"/>
      <point x="134" y="807"/>
      <point x="75" y="799"/>
      <point x="20" y="795" type="curve"/>
      <point x="18" y="782"/>
      <point x="17" y="770"/>
      <point x="20" y="757" type="curve"/>
      <point x="102" y="747" type="line"/>
      <point x="102" y="174" type="line" smooth="yes"/>
      <point x="102" y="133"/>
      <point x="101" y="88"/>
      <point x="98" y="47" type="curve"/>
      <point x="19" y="36" type="line"/>
      <point x="15" y="23"/>
      <point x="15" y="10"/>
      <point x="19" y="-3" type="curve"/>
      <point x="61" y="-2"/>
      <point x="105" y="-1"/>
      <point x="149" y="-1" type="curve" smooth="yes"/>
      <point x="193" y="-1"/>
      <point x="236" y="-2"/>
      <point x="278" y="-4" type="curve"/>
      <point x="280" y="9"/>
      <point x="281" y="23"/>
      <point x="278" y="36" type="curve"/>
      <point x="197" y="51" type="line"/>
    </contour>
  </outline>
</glyph>
<glyph name="m" format="1">
  <advance width="961"/>
  <unicode hex="006D"/>
  <outline>
    <contour>
      <point x="772" y="174" type="line" smooth="yes"/>
      <point x="772" y="133"/>
      <point x="771" y="88"/>
      <point x="768" y="47" type="curve"/>
      <point x="689" y="36" type="line"/>
      <point x="685" y="23"/>
      <point x="685" y="10"/>
      <point x="689" y="-3" type="curve"/>
      <point x="731" y="-2"/>
      <point x="775" y="-1"/>
      <point x="819" y="-1" type="curve" smooth="yes"/>
      <point x="862" y="-1"/>
      <point x="905" y="-2"/>
      <point x="947" y="-4" type="curve"/>
      <point x="949" y="9"/>
      <point x="950" y="23"/>
      <point x="947" y="36" type="curve"/>
      <point x="866" y="51" type="line"/>
      <point x="866" y="407" type="line" smooth="yes"/>
      <point x="866" y="517"/>
      <point x="781" y="554"/>
      <point x="712" y="554" type="curve" smooth="yes"/>
      <point x="641" y="554"/>
      <point x="580" y="507"/>
      <point x="535" y="446" type="curve"/>
      <point x="517" y="526"/>
      <point x="445" y="554"/>
      <point x="385" y="554" type="curve" smooth="yes"/>
      <point x="314" y="554"/>
      <point x="252" y="507"/>
      <point x="207" y="445" type="curve"/>
      <point x="207" y="503"/>
      <point x="207" y="508"/>
      <point x="212" y="534" type="curve"/>
      <point x="211" y="541"/>
      <point x="208" y="547"/>
      <point x="202" y="554" type="curve"/>
      <point x="144" y="545"/>
      <point x="86" y="537"/>
      <point x="31" y="533" type="curve"/>
      <point x="29" y="520"/>
      <point x="28" y="508"/>
      <point x="31" y="495" type="curve"/>
      <point x="110" y="485" type="line"/>
      <point x="112" y="474"/>
      <point x="113" y="464"/>
      <point x="113" y="448" type="curve" smooth="yes"/>
      <point x="113" y="174" type="line" smooth="yes"/>
      <point x="113" y="133"/>
      <point x="112" y="88"/>
      <point x="109" y="47" type="curve"/>
      <point x="30" y="36" type="line"/>
      <point x="26" y="23"/>
      <point x="26" y="10"/>
      <point x="30" y="-3" type="curve"/>
      <point x="72" y="-2"/>
      <point x="116" y="-1"/>
      <point x="160" y="-1" type="curve" smooth="yes"/>
      <point x="203" y="-1"/>
      <point x="246" y="-2"/>
      <point x="288" y="-4" type="curve"/>
      <point x="290" y="9"/>
      <point x="291" y="23"/>
      <point x="288" y="36" type="curve"/>
      <point x="207" y="51" type="line"/>
      <point x="207" y="383" type="line"/>
      <point x="252" y="456"/>
      <point x="293" y="496"/>
      <point x="356" y="496" type="curve" smooth="yes"/>
      <point x="419" y="496"/>
      <point x="445" y="446"/>
      <point x="445" y="357" type="curve" smooth="yes"/>
      <point x="445" y="174" type="line" smooth="yes"/>
      <point x="445" y="133"/>
      <point x="444" y="88"/>
      <point x="441" y="47" type="curve"/>
      <point x="362" y="36" type="line"/>
      <point x="358" y="23"/>
      <point x="358" y="10"/>
      <point x="362" y="-3" type="curve"/>
      <point x="404" y="-2"/>
      <point x="448" y="-1"/>
      <point x="492" y="-1" type="curve" smooth="yes"/>
      <point x="535" y="-1"/>
      <point x="578" y="-2"/>
      <point x="620" y="-4" type="curve"/>
      <point x="622" y="9"/>
      <point x="623" y="23"/>
      <point x="620" y="36" type="curve"/>
      <point x="539" y="51" type="line"/>
      <point x="539" y="391" type="line"/>
      <point x="583" y="459"/>
      <point x="636" y="496"/>
      <point x="683" y="496" type="curve" smooth="yes"/>
      <point x="746" y="496"/>
      <point x="772" y="446"/>
      <point x="772" y="357" type="curve"/>
    </contour>
  </outline>
</glyph>
<glyph name="o" format="1">
  <advance width="598"/>
  <unicode hex="006F"/>
  <outline>
    <contour>
      <point x="43" y="102"/>
      <point x="138" y="-20"/>
      <point x="298" y="-20" type="curve" smooth="yes"/>
      <point x="448" y="-20"/>
      <point x="555" y="102"/>
      <point x="555" y="266" type="curve" smooth="yes"/>
      <point x="555" y="420"/>
      <point x="458" y="554"/>
      <point x="298" y="554" type="curve" smooth="yes"/>
      <point x="138" y="554"/>
      <point x="43" y="420"/>
      <point x="43" y="266" type="curve" smooth="yes"/>
    </contour>
    <contour>
      <point x="149" y="441"/>
      <point x="222" y="512"/>
      <point x="298" y="512" type="curve" smooth="yes"/>
      <point x="374" y="512"/>
      <point x="449" y="441"/>
      <point x="449" y="266" type="curve" smooth="yes"/>
      <point x="449" y="91"/>
      <point x="374" y="22"/>
      <point x="298" y="22" type="curve" smooth="yes"/>
      <point x="222" y="22"/>
      <point x="149" y="91"/>
      <point x="149" y="266" type="curve" smooth="yes"/>
    </contour>
    <contour>
      <point x="298" y="570" type="move" name="top"/>
    </contour>
  </outline>
</glyph>
<glyph name="p" format="1">
  <advance width="631"/>
  <unicode hex="0070"/>
  <outline>
    <contour>
      <point x="287" y="34"/>
      <point x="239" y="49"/>
      <point x="196" y="98" type="curve"/>
      <point x="196" y="409" type="line"/>
      <point x="238" y="465"/>
      <point x="290" y="494"/>
      <point x="348" y="494" type="curve" smooth="yes"/>
      <point x="424" y="494"/>
      <point x="481" y="428"/>
      <point x="481" y="291" type="curve" smooth="yes"/>
      <point x="481" y="113"/>
      <point x="423" y="34"/>
      <point x="338" y="34" type="curve" smooth="yes"/>
    </contour>
    <contour>
      <point x="101" y="-95" type="line" smooth="yes"/>
      <point x="101" y="-136"/>
      <point x="100" y="-181"/>
      <point x="97" y="-222" type="curve"/>
      <point x="18" y="-233" type="line"/>
      <point x="14" y="-246"/>
      <point x="14" y="-259"/>
      <point x="18" y="-272" type="curve"/>
      <point x="60" y="-271"/>
      <point x="109" y="-270"/>
      <point x="158" y="-270" type="curve" smooth="yes"/>
      <point x="207" y="-270"/>
      <point x="255" y="-271"/>
      <point x="297" y="-273" type="curve"/>
      <point x="299" y="-260"/>
      <point x="300" y="-246"/>
      <point x="297" y="-233" type="curve"/>
      <point x="196" y="-218" type="line"/>
      <point x="196" y="27" type="line"/>
      <point x="236" y="-4"/>
      <point x="288" y="-20"/>
      <point x="330" y="-20" type="curve" smooth="yes"/>
      <point x="462" y="-20"/>
      <point x="587" y="94"/>
      <point x="587" y="288" type="curve" smooth="yes"/>
      <point x="587" y="452"/>
      <point x="496" y="554"/>
      <point x="382" y="554" type="curve" smooth="yes"/>
      <point x="303" y="554"/>
      <point x="241" y="512"/>
      <point x="196" y="460" type="curve"/>
      <point x="196" y="493"/>
      <point x="197" y="506"/>
      <point x="201" y="534" type="curve"/>
      <point x="200" y="542"/>
      <point x="197" y="548"/>
      <point x="191" y="554" type="curve"/>
      <point x="134" y="545"/>
      <point x="76" y="537"/>
      <point x="19" y="533" type="curve"/>
      <point x="17" y="520"/>
      <point x="16" y="509"/>
      <point x="19" y="495" type="curve"/>
      <point x="98" y="485" type="line"/>
      <point x="101" y="458"/>
      <point x="101" y="427"/>
      <point x="101" y="391" type="curve"/>
    </contour>
  </outline>
</glyph>
<glyph name="q" format="1">
  <advance width="614"/>
  <unicode hex="0071"/>
  <outline>
    <contour>
      <point x="531" y="-218" type="line"/>
      <point x="531" y="363" type="line"/>
      <point x="535" y="427"/>
      <point x="540" y="488"/>
      <point x="556" y="545" type="curve"/>
      <point x="545" y="550"/>
      <point x="514" y="554"/>
      <point x="502" y="554" type="curve"/>
      <point x="468" y="471" type="line"/>
      <point x="434" y="526"/>
      <point x="370" y="554"/>
      <point x="313" y="554" type="curve" smooth="yes"/>
      <point x="171" y="554"/>
      <point x="44" y="452"/>
      <point x="44" y="258" type="curve" smooth="yes"/>
      <point x="44" y="94"/>
      <point x="140" y="-20"/>
      <point x="255" y="-20" type="curve" smooth="yes"/>
      <point x="329" y="-20"/>
      <point x="388" y="15"/>
      <point x="436" y="63" type="curve"/>
      <point x="436" y="-82" type="line" smooth="yes"/>
      <point x="436" y="-123"/>
      <point x="435" y="-181"/>
      <point x="432" y="-222" type="curve"/>
      <point x="343" y="-233" type="line"/>
      <point x="339" y="-246"/>
      <point x="339" y="-259"/>
      <point x="343" y="-272" type="curve"/>
      <point x="385" y="-271"/>
      <point x="432" y="-270"/>
      <point x="478" y="-270" type="curve" smooth="yes"/>
      <point x="524" y="-270"/>
      <point x="570" y="-271"/>
      <point x="612" y="-273" type="curve"/>
      <point x="614" y="-260"/>
      <point x="615" y="-246"/>
      <point x="612" y="-233" type="curve"/>
    </contour>
    <contour>
      <point x="350" y="500"/>
      <point x="394" y="484"/>
      <point x="436" y="430" type="curve"/>
      <point x="436" y="124" type="line"/>
      <point x="394" y="69"/>
      <point x="333" y="40"/>
      <point x="289" y="40" type="curve" smooth="yes"/>
      <point x="213" y="40"/>
      <point x="150" y="118"/>
      <point x="150" y="255" type="curve" smooth="yes"/>
      <point x="150" y="412"/>
      <point x="214" y="500"/>
      <point x="299" y="500" type="curve" smooth="yes"/>
    </contour>
  </outline>
</glyph>
<glyph name="r" format="1">
  <advance width="435"/>
  <unicode hex="0072"/>
  <outline>
    <contour>
      <point x="213" y="534" type="line"/>
      <point x="212" y="541"/>
      <point x="209" y="547"/>
      <point x="203" y="554" type="curve"/>
      <point x="145" y="545"/>
      <point x="86" y="537"/>
      <point x="31" y="533" type="curve"/>
      <point x="29" y="520"/>
      <point x="28" y="508"/>
      <point x="31" y="495" type="curve"/>
      <point x="110" y="485" type="line"/>
      <point x="112" y="474"/>
      <point x="113" y="464"/>
      <point x="113" y="448" type="curve" smooth="yes"/>
      <point x="113" y="174" type="line" smooth="yes"/>
      <point x="113" y="133"/>
      <point x="112" y="88"/>
      <point x="109" y="47" type="curve"/>
      <point x="30" y="36" type="line"/>
      <point x="26" y="23"/>
      <point x="26" y="10"/>
      <point x="30" y="-3" type="curve"/>
      <point x="72" y="-2"/>
      <point x="124" y="-1"/>
      <point x="175" y="-1" type="curve" smooth="yes"/>
      <point x="226" y="-1"/>
      <point x="277" y="-2"/>
      <point x="319" y="-4" type="curve"/>
      <point x="321" y="9"/>
      <point x="322" y="23"/>
      <point x="319" y="36" type="curve"/>
      <point x="208" y="51" type="line"/>
      <point x="208" y="202" type="line"/>
      <point x="210" y="377" type="line"/>
      <point x="247" y="433"/>
      <point x="290" y="457"/>
      <point x="345" y="457" type="curve" smooth="yes"/>
      <point x="366" y="457"/>
      <point x="389" y="454"/>
      <point x="414" y="447" type="curve"/>
      <point x="422" y="466"/>
      <point x="428" y="492"/>
      <point x="428" y="513" type="curve" smooth="yes"/>
      <point x="428" y="527"/>
      <point x="425" y="539"/>
      <point x="420" y="547" type="curve"/>
      <point x="399" y="553"/>
      <point x="385" y="554"/>
      <point x="365" y="554" type="curve" smooth="yes"/>
      <point x="308" y="554"/>
      <point x="241" y="487"/>
      <point x="211" y="431" type="curve"/>
    </contour>
  </outline>
</glyph>
<glyph name="s" format="1">
  <advance width="460"/>
  <unicode hex="0073"/>
  <outline>
    <contour>
      <point x="183" y="24"/>
      <point x="149" y="31"/>
      <point x="114" y="47" type="curve"/>
      <point x="92" y="146" type="line"/>
      <point x="45" y="146" type="line"/>
      <point x="45" y="18" type="line"/>
      <point x="97" y="-8"/>
      <point x="151" y="-20"/>
      <point x="212" y="-20" type="curve" smooth="yes"/>
      <point x="335" y="-20"/>
      <point x="418" y="50"/>
      <point x="418" y="143" type="curve" smooth="yes"/>
      <point x="418" y="234"/>
      <point x="345" y="278"/>
      <point x="253" y="324" type="curve" smooth="yes"/>
      <point x="173" y="364"/>
      <point x="139" y="402"/>
      <point x="139" y="450" type="curve" smooth="yes"/>
      <point x="139" y="490"/>
      <point x="161" y="517"/>
      <point x="221" y="517" type="curve" smooth="yes"/>
      <point x="254" y="517"/>
      <point x="281" y="512"/>
      <point x="314" y="496" type="curve"/>
      <point x="336" y="388" type="line"/>
      <point x="383" y="388" type="line"/>
      <point x="383" y="516" type="line"/>
      <point x="333" y="542"/>
      <point x="290" y="554"/>
      <point x="231" y="554" type="curve" smooth="yes"/>
      <point x="136" y="554"/>
      <point x="55" y="513"/>
      <point x="55" y="413" type="curve" smooth="yes"/>
      <point x="55" y="327"/>
      <point x="116" y="283"/>
      <point x="212" y="234" type="curve" smooth="yes"/>
      <point x="300" y="189"/>
      <point x="328" y="159"/>
      <point x="328" y="107" type="curve" smooth="yes"/>
      <point x="328" y="69"/>
      <point x="301" y="24"/>
      <point x="222" y="24" type="curve" smooth="yes"/>
    </contour>
  </outline>
</glyph>
<glyph name="w" format="1">
  <advance width="838"/>
  <unicode hex="0077"/>
  <outline>
    <contour>
      <point x="562" y="-44" type="line"/>
      <point x="765" y="486" type="line"/>
      <point x="840" y="497" type="line"/>
      <point x="844" y="510"/>
      <point x="844" y="523"/>
      <point x="840" y="536" type="curve"/>
      <point x="797" y="534"/>
      <point x="766" y="533"/>
      <point x="735" y="533" type="curve" smooth="yes"/>
      <point x="704" y="533"/>
      <point x="673" y="534"/>
      <point x="632" y="537" type="curve"/>
      <point x="630" y="524"/>
      <point x="629" y="510"/>
      <point x="632" y="497" type="curve"/>
      <point x="710" y="489" type="line"/>
      <point x="623" y="253" type="line"/>
      <point x="606" y="212"/>
      <point x="588" y="155"/>
      <point x="576" y="113" type="curve"/>
      <point x="574" y="113" type="line"/>
      <point x="563" y="157"/>
      <point x="544" y="212"/>
      <point x="528" y="258" type="curve" smooth="yes"/>
      <point x="451" y="485" type="line"/>
      <point x="528" y="497" type="line"/>
      <point x="532" y="510"/>
      <point x="532" y="523"/>
      <point x="528" y="536" type="curve"/>
      <point x="485" y="534"/>
      <point x="446" y="533"/>
      <point x="407" y="533" type="curve" smooth="yes"/>
      <point x="368" y="533"/>
      <point x="329" y="534"/>
      <point x="288" y="537" type="curve"/>
      <point x="286" y="524"/>
      <point x="285" y="510"/>
      <point x="288" y="497" type="curve"/>
      <point x="351" y="485" type="line"/>
      <point x="385" y="390" type="line"/>
      <point x="334" y="253" type="line"/>
      <point x="317" y="212"/>
      <point x="299" y="155"/>
      <point x="287" y="113" type="curve"/>
      <point x="285" y="113" type="line"/>
      <point x="274" y="157"/>
      <point x="255" y="212"/>
      <point x="239" y="258" type="curve" smooth="yes"/>
      <point x="159" y="485" type="line"/>
      <point x="236" y="497" type="line"/>
      <point x="240" y="510"/>
      <point x="240" y="523"/>
      <point x="236" y="536" type="curve"/>
      <point x="193" y="534"/>
      <point x="154" y="533"/>
      <point x="115" y="533" type="curve" smooth="yes"/>
      <point x="76" y="533"/>
      <point x="37" y="534"/>
      <point x="-4" y="537" type="curve"/>
      <point x="-6" y="524"/>
      <point x="-7" y="510"/>
      <point x="-4" y="497" type="curve"/>
      <point x="59" y="485" type="line"/>
      <point x="251" y="-44" type="line"/>
      <point x="272" y="-44" type="line"/>
      <point x="409" y="323" type="line"/>
      <point x="541" y="-44" type="line"/>
    </contour>
  </outline>
</glyph>
<glyph name="y" format="1">
  <advance width="591"/>
  <unicode hex="0079"/>
  <outline>
    <contour>
      <point x="207" y="-148" type="line" smooth="yes"/>
      <point x="201" y="-164"/>
      <point x="189" y="-177"/>
      <point x="171" y="-177" type="curve" smooth="yes"/>
      <point x="154" y="-177"/>
      <point x="131" y="-165"/>
      <point x="101" y="-131" type="curve"/>
      <point x="72" y="-150"/>
      <point x="48" y="-182"/>
      <point x="44" y="-219" type="curve"/>
      <point x="69" y="-251"/>
      <point x="89" y="-260"/>
      <point x="134" y="-260" type="curve" smooth="yes"/>
      <point x="195" y="-260"/>
      <point x="225" y="-221"/>
      <point x="250" y="-160" type="curve" smooth="yes"/>
      <point x="514" y="486" type="line"/>
      <point x="593" y="497" type="line"/>
      <point x="597" y="510"/>
      <point x="597" y="523"/>
      <point x="593" y="536" type="curve"/>
      <point x="550" y="534"/>
      <point x="517" y="533"/>
      <point x="484" y="533" type="curve" smooth="yes"/>
      <point x="451" y="533"/>
      <point x="418" y="534"/>
      <point x="377" y="537" type="curve"/>
      <point x="375" y="524"/>
      <point x="374" y="510"/>
      <point x="377" y="497" type="curve"/>
      <point x="455" y="486" type="line"/>
      <point x="368" y="253" type="line"/>
      <point x="351" y="212"/>
      <point x="333" y="163"/>
      <point x="321" y="121" type="curve"/>
      <point x="319" y="121" type="line"/>
      <point x="308" y="165"/>
      <point x="295" y="214"/>
      <point x="277" y="258" type="curve" smooth="yes"/>
      <point x="182" y="483" type="line"/>
      <point x="268" y="497" type="line"/>
      <point x="272" y="510"/>
      <point x="272" y="523"/>
      <point x="268" y="536" type="curve"/>
      <point x="225" y="534"/>
      <point x="179" y="533"/>
      <point x="133" y="533" type="curve" smooth="yes"/>
      <point x="87" y="533"/>
      <point x="40" y="534"/>
      <point x="-1" y="537" type="curve"/>
      <point x="-4" y="524"/>
      <point x="-4" y="510"/>
      <point x="-1" y="497" type="curve"/>
      <point x="77" y="481" type="line"/>
      <point x="271" y="3" type="line"/>
    </contour>
    <contour>
      <point x="322" y="570" type="move" name="top"/>
    </contour>
  </outline>
</glyph>
<glyph name="z" format="1">
  <advance width="496"/>
  <unicode hex="007A"/>
  <outline>
    <contour>
      <point x="46" y="34" type="line"/>
      <point x="43" y="22"/>
      <point x="43" y="10"/>
      <point x="46" y="0" type="curve"/>
      <point x="443" y="0" type="line"/>
      <point x="446" y="175" type="line"/>
      <point x="434" y="177"/>
      <point x="421" y="178"/>
      <point x="409" y="175" type="curve"/>
      <point x="370" y="50" type="line"/>
      <point x="169" y="50" type="line"/>
      <point x="447" y="497" type="line"/>
      <point x="450" y="510"/>
      <point x="449" y="523"/>
      <point x="447" y="534" type="curve"/>
      <point x="55" y="534" type="line"/>
      <point x="52" y="359" type="line"/>
      <point x="64" y="357"/>
      <point x="77" y="356"/>
      <point x="89" y="359" type="curve"/>
      <point x="130" y="488" type="line"/>
      <point x="335" y="488" type="line"/>
    </contour>
  </outline>
</glyph>
<glyph name="bar" format="1">
  <advance width="230"/>
  <unicode hex="007C"/>
  <outline>
    <contour>
      <point x="147" y="913" type="line"/>
      <point x="131" y="917"/>
      <point x="108" y="917"/>
      <point x="90" y="913" type="curve"/>
      <point x="90" y="-138" type="line"/>
      <point x="107" y="-143"/>
      <point x="130" y="-144"/>
      <point x="147" y="-138" type="curve"/>
    </contour>
  </outline>
</glyph>
<glyph name="asciitilde" format="1">
  <advance width="662"/>
  <unicode hex="007E"/>
  <outline>
    <contour>
      <point x="376" y="461"/>
      <point x="357" y="563"/>
      <point x="227" y="563" type="curve" smooth="yes"/>
      <point x="144" y="563"/>
      <point x="79" y="496"/>
      <point x="42" y="447" type="curve"/>
      <point x="53" y="425"/>
      <point x="67" y="417"/>
      <point x="83" y="411" type="curve"/>
      <point x="132" y="460"/>
      <point x="159" y="485"/>
      <point x="200" y="485" type="curve" smooth="yes"/>
      <point x="301" y="485"/>
      <point x="316" y="383"/>
      <point x="450" y="383" type="curve" smooth="yes"/>
      <point x="537" y="383"/>
      <point x="598" y="444"/>
      <point x="632" y="490" type="curve"/>
      <point x="626" y="503"/>
      <point x="616" y="514"/>
      <point x="594" y="519" type="curve"/>
      <point x="537" y="472"/>
      <point x="516" y="461"/>
      <point x="475" y="461" type="curve" smooth="yes"/>
    </contour>
  </outline>
</glyph>
<glyph name="sterling" format="1">
  <advance width="638"/>
  <unicode hex="00A3"/>
  <outline>
    <contour>
      <point x="378" y="57"/>
      <point x="365" y="151"/>
      <point x="236" y="158" type="curve"/>
      <point x="258" y="175" type="line" smooth="yes"/>
      <point x="330" y="228"/>
      <point x="343" y="264"/>
      <point x="343" y="347" type="curve" smooth="yes"/>
      <point x="343" y="351"/>
      <point x="343" y="355"/>
      <point x="342" y="359" type="curve"/>
      <point x="473" y="359" type="line"/>
      <point x="481" y="376"/>
      <point x="481" y="392"/>
      <point x="473" y="409" type="curve"/>
      <point x="333" y="409" type="line"/>
      <point x="315" y="478"/>
      <point x="276" y="562"/>
      <point x="262" y="623" type="curve"/>
      <point x="257" y="641"/>
      <point x="255" y="659"/>
      <point x="255" y="676" type="curve" smooth="yes"/>
      <point x="255" y="731"/>
      <point x="283" y="773"/>
      <point x="349" y="773" type="curve" smooth="yes"/>
      <point x="394" y="773"/>
      <point x="434" y="764"/>
      <point x="472" y="734" type="curve"/>
      <point x="504" y="594" type="line"/>
      <point x="561" y="594" type="line"/>
      <point x="561" y="756" type="line"/>
      <point x="492" y="797"/>
      <point x="429" y="816"/>
      <point x="351" y="816" type="curve" smooth="yes"/>
      <point x="205" y="816"/>
      <point x="136" y="750"/>
      <point x="136" y="649" type="curve" smooth="yes"/>
      <point x="136" y="618"/>
      <point x="143" y="584"/>
      <point x="155" y="547" type="curve" smooth="yes"/>
      <point x="167" y="509"/>
      <point x="187" y="460"/>
      <point x="204" y="409" type="curve"/>
      <point x="122" y="409" type="line"/>
      <point x="115" y="392"/>
      <point x="115" y="376"/>
      <point x="122" y="359" type="curve"/>
      <point x="219" y="359" type="line"/>
      <point x="228" y="326"/>
      <point x="234" y="294"/>
      <point x="234" y="267" type="curve" smooth="yes"/>
      <point x="234" y="237"/>
      <point x="227" y="213"/>
      <point x="208" y="197" type="curve" smooth="yes"/>
      <point x="124" y="129" type="line"/>
      <point x="86" y="105"/>
      <point x="56" y="71"/>
      <point x="35" y="43" type="curve"/>
      <point x="46" y="21"/>
      <point x="60" y="13"/>
      <point x="76" y="7" type="curve"/>
      <point x="125" y="56"/>
      <point x="157" y="81"/>
      <point x="193" y="81" type="curve" smooth="yes"/>
      <point x="302" y="81"/>
      <point x="319" y="-21"/>
      <point x="463" y="-21" type="curve" smooth="yes"/>
      <point x="550" y="-21"/>
      <point x="611" y="40"/>
      <point x="645" y="86" type="curve"/>
      <point x="639" y="99"/>
      <point x="629" y="110"/>
      <point x="607" y="115" type="curve"/>
      <point x="550" y="68"/>
      <point x="529" y="57"/>
      <point x="488" y="57" type="curve" smooth="yes"/>
    </contour>
  </outline>
</glyph>
<glyph name="yen" format="1">
  <advance width="726"/>
  <unicode hex="00A5"/>
  <outline>
    <contour>
      <point x="598" y="257" type="line"/>
      <point x="606" y="274"/>
      <point x="606" y="290"/>
      <point x="598" y="307" type="curve"/>
      <point x="409" y="307" type="line"/>
      <point x="409" y="341" type="line"/>
      <point x="419" y="357" type="line"/>
      <point x="598" y="357" type="line"/>
      <point x="605" y="374"/>
      <point x="605" y="390"/>
      <point x="598" y="407" type="curve"/>
      <point x="449" y="407" type="line"/>
      <point x="605" y="661" type="line"/>
      <point x="629" y="703"/>
      <point x="649" y="725"/>
      <point x="671" y="750" type="curve"/>
      <point x="733" y="762" type="line"/>
      <point x="737" y="774"/>
      <point x="737" y="786"/>
      <point x="733" y="798" type="curve"/>
      <point x="690" y="796"/>
      <point x="655" y="795"/>
      <point x="621" y="795" type="curve" smooth="yes"/>
      <point x="586" y="795"/>
      <point x="552" y="796"/>
      <point x="511" y="799" type="curve"/>
      <point x="509" y="787"/>
      <point x="508" y="774"/>
      <point x="511" y="762" type="curve"/>
      <point x="592" y="752" type="line"/>
      <point x="383" y="399" type="line"/>
      <point x="251" y="625" type="line" smooth="yes"/>
      <point x="225" y="670"/>
      <point x="212" y="695"/>
      <point x="196" y="743" type="curve"/>
      <point x="294" y="762" type="line"/>
      <point x="298" y="774"/>
      <point x="298" y="786"/>
      <point x="294" y="798" type="curve"/>
      <point x="251" y="796"/>
      <point x="196" y="795"/>
      <point x="142" y="795" type="curve" smooth="yes"/>
      <point x="87" y="795"/>
      <point x="33" y="796"/>
      <point x="-8" y="799" type="curve"/>
      <point x="-10" y="787"/>
      <point x="-11" y="774"/>
      <point x="-8" y="762" type="curve"/>
      <point x="63" y="752" type="line"/>
      <point x="265" y="407" type="line"/>
      <point x="137" y="407" type="line"/>
      <point x="128" y="390"/>
      <point x="128" y="374"/>
      <point x="137" y="357" type="curve"/>
      <point x="294" y="357" type="line"/>
      <point x="302" y="344" type="line"/>
      <point x="302" y="307" type="line"/>
      <point x="137" y="307" type="line"/>
      <point x="128" y="290"/>
      <point x="130" y="274"/>
      <point x="137" y="257" type="curve"/>
      <point x="302" y="257" type="line"/>
      <point x="302" y="163" type="line" smooth="yes"/>
      <point x="302" y="126"/>
      <point x="302" y="84"/>
      <point x="298" y="46" type="curve"/>
      <point x="215" y="34" type="line"/>
      <point x="211" y="22"/>
      <point x="211" y="10"/>
      <point x="215" y="-2" type="curve"/>
      <point x="257" y="-1"/>
      <point x="305" y="0"/>
      <point x="353" y="0" type="curve" smooth="yes"/>
      <point x="401" y="0"/>
      <point x="448" y="-1"/>
      <point x="490" y="-3" type="curve"/>
      <point x="492" y="9"/>
      <point x="493" y="22"/>
      <point x="490" y="34" type="curve"/>
      <point x="409" y="44" type="line"/>
      <point x="409" y="257" type="line"/>
    </contour>
  </outline>
</glyph>
<glyph name="dieresis" format="1">
  <advance width="400"/>
  <unicode hex="00A8"/>
  <outline>
    <contour>
      <point x="43" y="633"/>
      <point x="72" y="606"/>
      <point x="108" y="606" type="curve" smooth="yes"/>
      <point x="143" y="606"/>
      <point x="169" y="633"/>
      <point x="169" y="669" type="curve" smooth="yes"/>
      <point x="169" y="705"/>
      <point x="143" y="731"/>
      <point x="108" y="731" type="curve" smooth="yes"/>
      <point x="72" y="731"/>
      <point x="43" y="705"/>
      <point x="43" y="669" type="curve" smooth="yes"/>
    </contour>
    <contour>
      <point x="236" y="633"/>
      <point x="264" y="606"/>
      <point x="300" y="606" type="curve" smooth="yes"/>
      <point x="335" y="606"/>
      <point x="362" y="633"/>
      <point x="362" y="669" type="curve" smooth="yes"/>
      <point x="362" y="705"/>
      <point x="335" y="731"/>
      <point x="300" y="731" type="curve" smooth="yes"/>
      <point x="264" y="731"/>
      <point x="236" y="705"/>
      <point x="236" y="669" type="curve" smooth="yes"/>
    </contour>
    <contour>
      <point x="198" y="537" type="move" name="_top"/>
    </contour>
  </outline>
</glyph>
<glyph name="copyright" format="1">
  <advance width="894"/>
  <unicode hex="00A9"/>
  <outline>
    <contour>
      <point x="549" y="211"/>
      <point x="506" y="187"/>
      <point x="450" y="187" type="curve" smooth="yes"/>
      <point x="373" y="187"/>
      <point x="320" y="257"/>
      <point x="320" y="386" type="curve" smooth="yes"/>
      <point x="320" y="498"/>
      <point x="378" y="578"/>
      <point x="456" y="578" type="curve" smooth="yes"/>
      <point x="486" y="578"/>
      <point x="510" y="575"/>
      <point x="539" y="555" type="curve"/>
      <point x="558" y="473" type="line"/>
      <point x="572" y="469"/>
      <point x="586" y="469"/>
      <point x="600" y="473" type="curve"/>
      <point x="600" y="583" type="line"/>
      <point x="557" y="606"/>
      <point x="512" y="617"/>
      <point x="463" y="617" type="curve" smooth="yes"/>
      <point x="310" y="617"/>
      <point x="229" y="494"/>
      <point x="229" y="376" type="curve" smooth="yes"/>
      <point x="229" y="260"/>
      <point x="298" y="139"/>
      <point x="450" y="139" type="curve" smooth="yes"/>
      <point x="515" y="139"/>
      <point x="568" y="173"/>
      <point x="612" y="213" type="curve"/>
      <point x="609" y="222"/>
      <point x="594" y="239"/>
      <point x="586" y="245" type="curve"/>
    </contour>
    <contour>
      <point x="842" y="589"/>
      <point x="668" y="773"/>
      <point x="447" y="773" type="curve" smooth="yes"/>
      <point x="237" y="773"/>
      <point x="53" y="600"/>
      <point x="53" y="379" type="curve" smooth="yes"/>
      <point x="53" y="170"/>
      <point x="226" y="-15"/>
      <point x="447" y="-15" type="curve" smooth="yes"/>
      <point x="656" y="-15"/>
      <point x="842" y="158"/>
      <point x="842" y="379" type="curve" smooth="yes"/>
    </contour>
    <contour>
      <point x="802" y="180"/>
      <point x="635" y="24"/>
      <point x="447" y="24" type="curve" smooth="yes"/>
      <point x="248" y="24"/>
      <point x="93" y="191"/>
      <point x="93" y="379" type="curve" smooth="yes"/>
      <point x="93" y="578"/>
      <point x="258" y="734"/>
      <point x="447" y="734" type="curve" smooth="yes"/>
      <point x="646" y="734"/>
      <point x="802" y="568"/>
      <point x="802" y="379" type="curve" smooth="yes"/>
    </contour>
  </outline>
</glyph>
<glyph name="ordfeminine" format="1">
  <advance width="468"/>
  <unicode hex="00AA"/>
  <outline>
    <contour>
      <point x="133" y="522"/>
      <point x="189" y="567"/>
      <point x="292" y="573" type="curve"/>
      <point x="292" y="463" type="line"/>
      <point x="258" y="425"/>
      <point x="213" y="397"/>
      <point x="182" y="397" type="curve" smooth="yes"/>
      <point x="145" y="397"/>
      <point x="133" y="414"/>
      <point x="133" y="466" type="curve" smooth="yes"/>
    </contour>
    <contour>
      <point x="292" y="607" type="line"/>
      <point x="150" y="603"/>
      <point x="47" y="560"/>
      <point x="47" y="458" type="curve" smooth="yes"/>
      <point x="47" y="395"/>
      <point x="86" y="351"/>
      <point x="154" y="351" type="curve" smooth="yes"/>
      <point x="211" y="351"/>
      <point x="258" y="377"/>
      <point x="301" y="426" type="curve"/>
      <point x="305" y="371" type="line" smooth="yes"/>
      <point x="306" y="363"/>
      <point x="309" y="359"/>
      <point x="313" y="355" type="curve"/>
      <point x="352" y="361"/>
      <point x="393" y="365"/>
      <point x="433" y="367" type="curve"/>
      <point x="434" y="377"/>
      <point x="435" y="386"/>
      <point x="433" y="397" type="curve"/>
      <point x="370" y="405" type="line"/>
      <point x="368" y="414"/>
      <point x="367" y="425"/>
      <point x="367" y="439" type="curve" smooth="yes"/>
      <point x="367" y="663" type="line" smooth="yes"/>
      <point x="367" y="774"/>
      <point x="326" y="807"/>
      <point x="226" y="807" type="curve" smooth="yes"/>
      <point x="136" y="807"/>
      <point x="62" y="764"/>
      <point x="62" y="689" type="curve"/>
      <point x="66" y="674"/>
      <point x="78" y="667"/>
      <point x="98" y="667" type="curve" smooth="yes"/>
      <point x="108" y="667"/>
      <point x="121" y="669"/>
      <point x="136" y="673" type="curve"/>
      <point x="147" y="752"/>
      <point x="180" y="776"/>
      <point x="225" y="776" type="curve" smooth="yes"/>
      <point x="274" y="776"/>
      <point x="292" y="735"/>
      <point x="292" y="647" type="curve" smooth="yes"/>
    </contour>
  </outline>
</glyph>
<glyph name="guillemetleft" format="1">
  <advance width="515"/>
  <unicode hex="00AB"/>
  <outline>
    <contour>
      <point x="137" y="247" type="line"/>
      <point x="270" y="433" type="line"/>
      <point x="267" y="444"/>
      <point x="259" y="451"/>
      <point x="248" y="454" type="curve"/>
      <point x="40" y="257" type="line"/>
      <point x="40" y="237" type="line"/>
      <point x="248" y="40" type="line"/>
      <point x="259" y="43"/>
      <point x="267" y="50"/>
      <point x="270" y="61" type="curve"/>
    </contour>
    <contour>
      <point x="338" y="247" type="line"/>
      <point x="464" y="424" type="line"/>
      <point x="461" y="434"/>
      <point x="454" y="441"/>
      <point x="443" y="444" type="curve"/>
      <point x="246" y="256" type="line"/>
      <point x="246" y="237" type="line"/>
      <point x="443" y="50" type="line"/>
      <point x="454" y="53"/>
      <point x="461" y="60"/>
      <point x="464" y="70" type="curve"/>
    </contour>
  </outline>
</glyph>
<glyph name="logicalnot" format="1">
  <advance width="653"/>
  <unicode hex="00AC"/>
  <outline>
    <contour>
      <point x="571" y="415" type="line"/>
      <point x="80" y="415" type="line"/>
      <point x="71" y="396"/>
      <point x="75" y="381"/>
      <point x="80" y="365" type="curve"/>
      <point x="521" y="365" type="line"/>
      <point x="521" y="154" type="line"/>
      <point x="539" y="145"/>
      <point x="555" y="144"/>
      <point x="571" y="154" type="curve"/>
    </contour>
  </outline>
</glyph>
<glyph name="macron" format="1">
  <advance width="642"/>
  <unicode hex="00AF"/>
  <outline>
    <contour>
      <point x="637" y="728" type="line"/>
      <point x="642" y="745"/>
      <point x="643" y="761"/>
      <point x="637" y="778" type="curve"/>
      <point x="6" y="778" type="line"/>
      <point x="-3" y="759"/>
      <point x="1" y="744"/>
      <point x="6" y="728" type="curve"/>
    </contour>
  </outline>
</glyph>
<glyph name="degree" format="1">
  <advance width="382"/>
  <unicode hex="00B0"/>
  <outline>
    <contour>
      <point x="367" y="710"/>
      <point x="288" y="791"/>
      <point x="191" y="791" type="curve" smooth="yes"/>
      <point x="97" y="791"/>
      <point x="15" y="716"/>
      <point x="15" y="616" type="curve" smooth="yes"/>
      <point x="15" y="521"/>
      <point x="93" y="439"/>
      <point x="192" y="439" type="curve" smooth="yes"/>
      <point x="287" y="439"/>
      <point x="367" y="518"/>
      <point x="367" y="617" type="curve" smooth="yes"/>
    </contour>
    <contour>
      <point x="303" y="554"/>
      <point x="254" y="497"/>
      <point x="192" y="497" type="curve" smooth="yes"/>
      <point x="128" y="497"/>
      <point x="79" y="556"/>
      <point x="79" y="616" type="curve" smooth="yes"/>
      <point x="79" y="679"/>
      <point x="132" y="733"/>
      <point x="191" y="733" type="curve" smooth="yes"/>
      <point x="254" y="733"/>
      <point x="303" y="676"/>
      <point x="303" y="618" type="curve" smooth="yes"/>
    </contour>
  </outline>
</glyph>
<glyph name="plusminus" format="1">
  <advance width="642"/>
  <unicode hex="00B1"/>
  <outline>
    <contour>
      <point x="346" y="585" type="line"/>
      <point x="329" y="591"/>
      <point x="313" y="592"/>
      <point x="296" y="585" type="curve"/>
      <point x="296" y="415" type="line"/>
      <point x="76" y="415" type="line"/>
      <point x="67" y="396"/>
      <point x="71" y="381"/>
      <point x="76" y="365" type="curve"/>
      <point x="296" y="365" type="line"/>
      <point x="296" y="194" type="line"/>
      <point x="314" y="185"/>
      <point x="330" y="184"/>
      <point x="346" y="194" type="curve"/>
      <point x="346" y="365" type="line"/>
      <point x="567" y="365" type="line"/>
      <point x="572" y="382"/>
      <point x="573" y="398"/>
      <point x="567" y="415" type="curve"/>
      <point x="346" y="415" type="line"/>
    </contour>
    <contour>
      <point x="567" y="95" type="line"/>
      <point x="572" y="112"/>
      <point x="573" y="128"/>
      <point x="567" y="145" type="curve"/>
      <point x="76" y="145" type="line"/>
      <point x="67" y="126"/>
      <point x="71" y="111"/>
      <point x="76" y="95" type="curve"/>
    </contour>
  </outline>
</glyph>
<glyph name="twosuperior" format="1">
  <advance width="423"/>
  <unicode hex="00B2"/>
  <outline>
    <contour>
      <point x="356" y="321" type="line"/>
      <point x="356" y="335"/>
      <point x="356" y="392"/>
      <point x="357" y="412" type="curve"/>
      <point x="339" y="408"/>
      <point x="312" y="400"/>
      <point x="291" y="399" type="curve"/>
      <point x="147" y="399" type="line"/>
      <point x="268" y="511"/>
      <point x="351" y="572"/>
      <point x="351" y="678" type="curve" smooth="yes"/>
      <point x="351" y="764"/>
      <point x="288" y="807"/>
      <point x="197" y="807" type="curve" smooth="yes"/>
      <point x="127" y="807"/>
      <point x="60" y="766"/>
      <point x="56" y="688" type="curve"/>
      <point x="66" y="673"/>
      <point x="109" y="670"/>
      <point x="140" y="671" type="curve"/>
      <point x="148" y="736"/>
      <point x="164" y="768"/>
      <point x="202" y="768" type="curve" smooth="yes"/>
      <point x="244" y="768"/>
      <point x="266" y="741"/>
      <point x="266" y="679" type="curve" smooth="yes"/>
      <point x="266" y="583"/>
      <point x="202" y="505"/>
      <point x="57" y="367" type="curve"/>
      <point x="56" y="350"/>
      <point x="60" y="333"/>
      <point x="67" y="321" type="curve"/>
    </contour>
  </outline>
</glyph>
<glyph name="paragraph" format="1">
  <advance width="677"/>
  <unicode hex="00B6"/>
  <outline>
    <contour>
      <point x="544" y="756" type="line"/>
      <point x="615" y="766" type="line"/>
      <point x="618" y="778"/>
      <point x="617" y="791"/>
      <point x="615" y="803" type="curve"/>
      <point x="580" y="800"/>
      <point x="545" y="799"/>
      <point x="506" y="799" type="curve" smooth="yes"/>
      <point x="487" y="799"/>
      <point x="467" y="799"/>
      <point x="446" y="800" type="curve" smooth="yes"/>
      <point x="401" y="802"/>
      <point x="352" y="807"/>
      <point x="283" y="807" type="curve" smooth="yes"/>
      <point x="96" y="807"/>
      <point x="36" y="711"/>
      <point x="36" y="578" type="curve" smooth="yes"/>
      <point x="36" y="448"/>
      <point x="151" y="352"/>
      <point x="285" y="352" type="curve" smooth="yes"/>
      <point x="305" y="352"/>
      <point x="326" y="353"/>
      <point x="348" y="357" type="curve"/>
      <point x="348" y="44" type="line"/>
      <point x="257" y="34" type="line"/>
      <point x="254" y="22"/>
      <point x="255" y="9"/>
      <point x="257" y="-3" type="curve"/>
      <point x="330" y="-1"/>
      <point x="395" y="0"/>
      <point x="462" y="0" type="curve" smooth="yes"/>
      <point x="510" y="0"/>
      <point x="559" y="-1"/>
      <point x="611" y="-2" type="curve"/>
      <point x="613" y="10"/>
      <point x="614" y="22"/>
      <point x="611" y="34" type="curve"/>
      <point x="548" y="46" type="line"/>
      <point x="544" y="84"/>
      <point x="544" y="126"/>
      <point x="544" y="163" type="curve" smooth="yes"/>
    </contour>
    <contour>
      <point x="202" y="395"/>
      <point x="157" y="454"/>
      <point x="157" y="583" type="curve" smooth="yes"/>
      <point x="157" y="690"/>
      <point x="196" y="765"/>
      <point x="308" y="765" type="curve" smooth="yes"/>
      <point x="320" y="765"/>
      <point x="335" y="764"/>
      <point x="343" y="761" type="curve"/>
      <point x="347" y="723"/>
      <point x="348" y="670"/>
      <point x="348" y="633" type="curve" smooth="yes"/>
      <point x="348" y="398" type="line"/>
      <point x="329" y="395"/>
      <point x="310" y="395"/>
      <point x="298" y="395" type="curve" smooth="yes"/>
    </contour>
    <contour>
      <point x="416" y="756" type="line"/>
      <point x="472" y="756" type="line"/>
      <point x="476" y="718"/>
      <point x="476" y="674"/>
      <point x="476" y="637" type="curve" smooth="yes"/>
      <point x="476" y="44" type="line"/>
      <point x="420" y="44" type="line"/>
      <point x="416" y="82"/>
      <point x="416" y="126"/>
      <point x="416" y="163" type="curve"/>
    </contour>
  </outline>
</glyph>
<glyph name="onesuperior" format="1">
  <advance width="343"/>
  <unicode hex="00B9"/>
  <outline>
    <contour>
      <point x="217" y="650" type="line" smooth="yes"/>
      <point x="217" y="740"/>
      <point x="217" y="771"/>
      <point x="222" y="797" type="curve"/>
      <point x="221" y="804"/>
      <point x="218" y="810"/>
      <point x="212" y="817" type="curve"/>
      <point x="45" y="773" type="line"/>
      <point x="41" y="759"/>
      <point x="43" y="739"/>
      <point x="47" y="730" type="curve"/>
      <point x="132" y="743" type="line"/>
      <point x="135" y="711"/>
      <point x="135" y="687"/>
      <point x="135" y="650" type="curve" smooth="yes"/>
      <point x="135" y="505" type="line" smooth="yes"/>
      <point x="135" y="464"/>
      <point x="134" y="419"/>
      <point x="131" y="378" type="curve"/>
      <point x="52" y="367" type="line"/>
      <point x="48" y="354"/>
      <point x="48" y="341"/>
      <point x="52" y="328" type="curve"/>
      <point x="94" y="329"/>
      <point x="135" y="330"/>
      <point x="176" y="330" type="curve" smooth="yes"/>
      <point x="216" y="330"/>
      <point x="256" y="329"/>
      <point x="298" y="327" type="curve"/>
      <point x="300" y="340"/>
      <point x="301" y="354"/>
      <point x="298" y="367" type="curve"/>
      <point x="217" y="382" type="line"/>
    </contour>
  </outline>
</glyph>
<glyph name="multiply" format="1">
  <advance width="506"/>
  <unicode hex="00D7"/>
  <outline>
    <contour>
      <point x="97" y="581" type="line"/>
      <point x="80" y="573"/>
      <point x="68" y="563"/>
      <point x="61" y="546" type="curve"/>
      <point x="216" y="390" type="line"/>
      <point x="61" y="235" type="line"/>
      <point x="68" y="215"/>
      <point x="82" y="207"/>
      <point x="97" y="199" type="curve"/>
      <point x="252" y="354" type="line"/>
      <point x="409" y="198" type="line"/>
      <point x="428" y="205"/>
      <point x="440" y="215"/>
      <point x="444" y="234" type="curve"/>
      <point x="288" y="390" type="line"/>
      <point x="444" y="546" type="line"/>
      <point x="435" y="562"/>
      <point x="425" y="574"/>
      <point x="409" y="582" type="curve"/>
      <point x="252" y="426" type="line"/>
    </contour>
  </outline>
</glyph>
<glyph name="Oslash" format="1">
  <advance width="906"/>
  <unicode hex="00D8"/>
  <outline>
    <contour>
      <point x="746" y="881" type="line"/>
      <point x="667" y="760" type="line"/>
      <point x="609" y="795"/>
      <point x="537" y="816"/>
      <point x="452" y="816" type="curve" smooth="yes"/>
      <point x="217" y="816"/>
      <point x="52" y="617"/>
      <point x="52" y="386" type="curve" smooth="yes"/>
      <point x="52" y="262"/>
      <point x="102" y="135"/>
      <point x="205" y="57" type="curve"/>
      <point x="112" y="-84" type="line"/>
      <point x="167" y="-84" type="line"/>
      <point x="243" y="32" type="line"/>
      <point x="300" y="0"/>
      <point x="369" y="-20"/>
      <point x="452" y="-20" type="curve" smooth="yes"/>
      <point x="690" y="-20"/>
      <point x="853" y="173"/>
      <point x="853" y="408" type="curve" smooth="yes"/>
      <point x="853" y="531"/>
      <point x="804" y="656"/>
      <point x="704" y="734" type="curve"/>
      <point x="801" y="881" type="line"/>
    </contour>
    <contour>
      <point x="172" y="597"/>
      <point x="258" y="761"/>
      <point x="451" y="761" type="curve" smooth="yes"/>
      <point x="525" y="761"/>
      <point x="583" y="738"/>
      <point x="627" y="699" type="curve"/>
      <point x="252" y="129" type="line"/>
      <point x="197" y="200"/>
      <point x="172" y="303"/>
      <point x="172" y="411" type="curve" smooth="yes"/>
    </contour>
    <contour>
      <point x="382" y="35"/>
      <point x="327" y="57"/>
      <point x="284" y="95" type="curve"/>
      <point x="659" y="665" type="line"/>
      <point x="709" y="600"/>
      <point x="733" y="509"/>
      <point x="733" y="412" type="curve" smooth="yes"/>
      <point x="733" y="216"/>
      <point x="647" y="35"/>
      <point x="451" y="35" type="curve" smooth="yes"/>
    </contour>
    <contour>
      <point x="452" y="830" type="move" name="top"/>
    </contour>
  </outline>
</glyph>
<glyph name="germandbls" format="1">
  <advance width="605"/>
  <unicode hex="00DF"/>
  <outline>
    <contour>
      <point x="89" y="-1"/>
      <point x="150" y="1"/>
      <point x="212" y="1" type="curve"/>
      <point x="204" y="41"/>
      <point x="199" y="105"/>
      <point x="199" y="141" type="curve" smooth="yes"/>
      <point x="199" y="501" type="line" smooth="yes"/>
      <point x="199" y="718"/>
      <point x="231" y="776"/>
      <point x="302" y="776" type="curve" smooth="yes"/>
      <point x="373" y="776"/>
      <point x="418" y="740"/>
      <point x="418" y="633" type="curve" smooth="yes"/>
      <point x="418" y="531"/>
      <point x="376" y="472"/>
      <point x="302" y="469" type="curve"/>
      <point x="295" y="452"/>
      <point x="295" y="432"/>
      <point x="302" y="420" type="curve"/>
      <point x="406" y="402"/>
      <point x="462" y="350"/>
      <point x="462" y="220" type="curve" smooth="yes"/>
      <point x="462" y="100"/>
      <point x="454" y="17"/>
      <point x="393" y="17" type="curve" smooth="yes"/>
      <point x="376" y="17"/>
      <point x="342" y="32"/>
      <point x="336" y="93" type="curve"/>
      <point x="307" y="95"/>
      <point x="280" y="88"/>
      <point x="259" y="72" type="curve"/>
      <point x="259" y="9"/>
      <point x="314" y="-17"/>
      <point x="379" y="-17" type="curve" smooth="yes"/>
      <point x="472" y="-17"/>
      <point x="566" y="43"/>
      <point x="566" y="225" type="curve" smooth="yes"/>
      <point x="566" y="345"/>
      <point x="494" y="432"/>
      <point x="368" y="443" type="curve"/>
      <point x="368" y="447" type="line"/>
      <point x="470" y="459"/>
      <point x="515" y="553"/>
      <point x="515" y="644" type="curve" smooth="yes"/>
      <point x="515" y="754"/>
      <point x="420" y="816"/>
      <point x="313" y="816" type="curve" smooth="yes"/>
      <point x="193" y="816"/>
      <point x="104" y="743"/>
      <point x="104" y="569" type="curve" smooth="yes"/>
      <point x="104" y="174" type="line" smooth="yes"/>
      <point x="104" y="133"/>
      <point x="103" y="92"/>
      <point x="100" y="52" type="curve"/>
      <point x="27" y="36" type="line"/>
      <point x="22" y="23"/>
      <point x="21" y="10"/>
      <point x="27" y="-3" type="curve"/>
    </contour>
  </outline>
</glyph>
<glyph name="ae" format="1">
  <advance width="832"/>
  <unicode hex="00E6"/>
  <outline>
    <contour>
      <point x="348" y="302" type="line"/>
      <point x="170" y="298"/>
      <point x="40" y="241"/>
      <point x="40" y="113" type="curve" smooth="yes"/>
      <point x="40" y="33"/>
      <point x="89" y="-20"/>
      <point x="174" y="-20" type="curve" smooth="yes"/>
      <point x="263" y="-20"/>
      <point x="336" y="16"/>
      <point x="383" y="78" type="curve"/>
      <point x="425" y="14"/>
      <point x="494" y="-20"/>
      <point x="586" y="-20" type="curve" smooth="yes"/>
      <point x="667" y="-20"/>
      <point x="725" y="7"/>
      <point x="777" y="58" type="curve"/>
      <point x="771" y="75"/>
      <point x="767" y="81"/>
      <point x="754" y="89" type="curve"/>
      <point x="710" y="57"/>
      <point x="658" y="28"/>
      <point x="602" y="28" type="curve" smooth="yes"/>
      <point x="481" y="28"/>
      <point x="439" y="132"/>
      <point x="444" y="282" type="curve"/>
      <point x="770" y="282" type="line"/>
      <point x="777" y="283"/>
      <point x="784" y="285"/>
      <point x="791" y="291" type="curve"/>
      <point x="791" y="431"/>
      <point x="741" y="554"/>
      <point x="582" y="554" type="curve" smooth="yes"/>
      <point x="521" y="554"/>
      <point x="463" y="534"/>
      <point x="419" y="492" type="curve"/>
      <point x="393" y="538"/>
      <point x="343" y="554"/>
      <point x="265" y="554" type="curve" smooth="yes"/>
      <point x="152" y="554"/>
      <point x="59" y="500"/>
      <point x="59" y="406" type="curve"/>
      <point x="64" y="387"/>
      <point x="79" y="378"/>
      <point x="105" y="378" type="curve" smooth="yes"/>
      <point x="118" y="378"/>
      <point x="134" y="381"/>
      <point x="152" y="385" type="curve"/>
      <point x="166" y="485"/>
      <point x="207" y="515"/>
      <point x="264" y="515" type="curve" smooth="yes"/>
      <point x="325" y="515"/>
      <point x="348" y="464"/>
      <point x="348" y="353" type="curve" smooth="yes"/>
    </contour>
    <contour>
      <point x="135" y="225"/>
      <point x="219" y="259"/>
      <point x="348" y="266" type="curve"/>
      <point x="348" y="153" type="line" smooth="yes"/>
      <point x="348" y="102"/>
      <point x="285" y="38"/>
      <point x="214" y="38" type="curve" smooth="yes"/>
      <point x="160" y="38"/>
      <point x="135" y="63"/>
      <point x="135" y="133" type="curve" smooth="yes"/>
    </contour>
    <contour>
      <point x="655" y="508"/>
      <point x="687" y="436"/>
      <point x="687" y="331" type="curve"/>
      <point x="679" y="329"/>
      <point x="635" y="322"/>
      <point x="571" y="322" type="curve" smooth="yes"/>
      <point x="447" y="322" type="line"/>
      <point x="458" y="433"/>
      <point x="508" y="508"/>
      <point x="573" y="508" type="curve" smooth="yes"/>
    </contour>
  </outline>
</glyph>
<glyph name="eth" format="1">
  <advance width="606"/>
  <unicode hex="00F0"/>
  <outline>
    <contour>
      <point x="190" y="646" type="line"/>
      <point x="192" y="635"/>
      <point x="208" y="619"/>
      <point x="224" y="619" type="curve"/>
      <point x="301" y="699" type="line"/>
      <point x="360" y="649"/>
      <point x="409" y="575"/>
      <point x="437" y="475" type="curve"/>
      <point x="395" y="503"/>
      <point x="344" y="524"/>
      <point x="290" y="524" type="curve" smooth="yes"/>
      <point x="130" y="524"/>
      <point x="45" y="405"/>
      <point x="45" y="266" type="curve" smooth="yes"/>
      <point x="45" y="102"/>
      <point x="140" y="-20"/>
      <point x="300" y="-20" type="curve" smooth="yes"/>
      <point x="450" y="-20"/>
      <point x="557" y="102"/>
      <point x="557" y="266" type="curve" smooth="yes"/>
      <point x="557" y="272"/>
      <point x="557" y="278"/>
      <point x="556" y="284" type="curve"/>
      <point x="551" y="473"/>
      <point x="462" y="642"/>
      <point x="338" y="737" type="curve"/>
      <point x="412" y="813" type="line"/>
      <point x="408" y="827"/>
      <point x="397" y="843"/>
      <point x="378" y="845" type="curve"/>
      <point x="300" y="763" type="line"/>
      <point x="246" y="796"/>
      <point x="186" y="815"/>
      <point x="124" y="817" type="curve"/>
      <point x="119" y="804"/>
      <point x="118" y="791"/>
      <point x="124" y="778" type="curve"/>
      <point x="173" y="771"/>
      <point x="221" y="754"/>
      <point x="265" y="726" type="curve"/>
    </contour>
    <contour>
      <point x="151" y="420"/>
      <point x="224" y="482"/>
      <point x="300" y="482" type="curve" smooth="yes"/>
      <point x="376" y="482"/>
      <point x="451" y="420"/>
      <point x="451" y="266" type="curve" smooth="yes"/>
      <point x="451" y="91"/>
      <point x="376" y="22"/>
      <point x="300" y="22" type="curve" smooth="yes"/>
      <point x="224" y="22"/>
      <point x="151" y="91"/>
      <point x="151" y="266" type="curve" smooth="yes"/>
    </contour>
  </outline>
</glyph>
<glyph name="divide" format="1">
  <advance width="619"/>
  <unicode hex="00F7"/>
  <outline>
    <contour>
      <point x="555" y="365" type="line"/>
      <point x="560" y="382"/>
      <point x="561" y="398"/>
      <point x="555" y="415" type="curve"/>
      <point x="64" y="415" type="line"/>
      <point x="55" y="396"/>
      <point x="59" y="381"/>
      <point x="64" y="365" type="curve"/>
    </contour>
    <component base="period" xOffset="195" yOffset="154"/>
    <component base="period" xOffset="195" yOffset="528"/>
  </outline>
</glyph>
<glyph name="oslash" format="1">
  <advance width="598"/>
  <unicode hex="00F8"/>
  <outline>
    <contour>
      <point x="403" y="594" type="line"/>
      <point x="382" y="540" type="line"/>
      <point x="357" y="549"/>
      <point x="328" y="554"/>
      <point x="298" y="554" type="curve" smooth="yes"/>
      <point x="138" y="554"/>
      <point x="43" y="420"/>
      <point x="43" y="266" type="curve" smooth="yes"/>
      <point x="43" y="151"/>
      <point x="89" y="57"/>
      <point x="172" y="11" type="curve"/>
      <point x="149" y="-53" type="line"/>
      <point x="199" y="-53" type="line"/>
      <point x="216" y="-8" type="line"/>
      <point x="241" y="-16"/>
      <point x="268" y="-20"/>
      <point x="298" y="-20" type="curve" smooth="yes"/>
      <point x="448" y="-20"/>
      <point x="555" y="102"/>
      <point x="555" y="266" type="curve" smooth="yes"/>
      <point x="555" y="373"/>
      <point x="507" y="470"/>
      <point x="425" y="520" type="curve"/>
      <point x="453" y="594" type="line"/>
    </contour>
    <contour>
      <point x="149" y="441"/>
      <point x="222" y="512"/>
      <point x="298" y="512" type="curve" smooth="yes"/>
      <point x="319" y="512"/>
      <point x="341" y="506"/>
      <point x="360" y="494" type="curve"/>
      <point x="200" y="71" type="line"/>
      <point x="169" y="109"/>
      <point x="149" y="173"/>
      <point x="149" y="266" type="curve" smooth="yes"/>
    </contour>
    <contour>
      <point x="449" y="91"/>
      <point x="374" y="22"/>
      <point x="298" y="22" type="curve" smooth="yes"/>
      <point x="277" y="22"/>
      <point x="257" y="27"/>
      <point x="238" y="38" type="curve"/>
      <point x="398" y="460" type="line"/>
      <point x="428" y="420"/>
      <point x="449" y="357"/>
      <point x="449" y="266" type="curve" smooth="yes"/>
    </contour>
    <contour>
      <point x="298" y="570" type="move" name="top"/>
    </contour>
  </outline>
</glyph>
<glyph name="thorn" format="1">
  <advance width="619"/>
  <unicode hex="00FE"/>
  <outline>
    <contour>
      <point x="265" y="34"/>
      <point x="217" y="49"/>
      <point x="174" y="98" type="curve"/>
      <point x="174" y="409" type="line"/>
      <point x="216" y="465"/>
      <point x="268" y="494"/>
      <point x="326" y="494" type="curve" smooth="yes"/>
      <point x="408" y="494"/>
      <point x="469" y="428"/>
      <point x="469" y="291" type="curve" smooth="yes"/>
      <point x="469" y="113"/>
      <point x="407" y="34"/>
      <point x="316" y="34" type="curve" smooth="yes"/>
    </contour>
    <contour>
      <point x="79" y="-95" type="line" smooth="yes"/>
      <point x="79" y="-136"/>
      <point x="78" y="-181"/>
      <point x="75" y="-222" type="curve"/>
      <point x="-4" y="-233" type="line"/>
      <point x="-8" y="-246"/>
      <point x="-8" y="-259"/>
      <point x="-4" y="-272" type="curve"/>
      <point x="38" y="-271"/>
      <point x="87" y="-270"/>
      <point x="136" y="-270" type="curve" smooth="yes"/>
      <point x="185" y="-270"/>
      <point x="233" y="-271"/>
      <point x="275" y="-273" type="curve"/>
      <point x="277" y="-260"/>
      <point x="278" y="-246"/>
      <point x="275" y="-233" type="curve"/>
      <point x="174" y="-218" type="line"/>
      <point x="174" y="27" type="line"/>
      <point x="214" y="-4"/>
      <point x="266" y="-20"/>
      <point x="308" y="-20" type="curve" smooth="yes"/>
      <point x="445" y="-20"/>
      <point x="575" y="94"/>
      <point x="575" y="288" type="curve" smooth="yes"/>
      <point x="575" y="452"/>
      <point x="480" y="554"/>
      <point x="360" y="554" type="curve" smooth="yes"/>
      <point x="281" y="554"/>
      <point x="219" y="512"/>
      <point x="174" y="460" type="curve"/>
      <point x="174" y="738" type="line" smooth="yes"/>
      <point x="174" y="760"/>
      <point x="176" y="773"/>
      <point x="179" y="796" type="curve"/>
      <point x="178" y="804"/>
      <point x="175" y="810"/>
      <point x="169" y="816" type="curve"/>
      <point x="112" y="807"/>
      <point x="54" y="799"/>
      <point x="-3" y="795" type="curve"/>
      <point x="-5" y="782"/>
      <point x="-6" y="771"/>
      <point x="-3" y="757" type="curve"/>
      <point x="76" y="747" type="line"/>
      <point x="79" y="720"/>
      <point x="79" y="689"/>
      <point x="79" y="653" type="curve"/>
    </contour>
  </outline>
</glyph>
<glyph name="idotless" format="1">
  <advance width="310"/>
  <unicode hex="0131"/>
  <outline>
    <contour>
      <point x="208" y="372" type="line" smooth="yes"/>
      <point x="208" y="462"/>
      <point x="208" y="508"/>
      <point x="213" y="534" type="curve"/>
      <point x="212" y="541"/>
      <point x="209" y="547"/>
      <point x="203" y="554" type="curve"/>
      <point x="145" y="545"/>
      <point x="86" y="537"/>
      <point x="31" y="533" type="curve"/>
      <point x="29" y="520"/>
      <point x="28" y="508"/>
      <point x="31" y="495" type="curve"/>
      <point x="110" y="485" type="line"/>
      <point x="113" y="453"/>
      <point x="113" y="424"/>
      <point x="113" y="387" type="curve" smooth="yes"/>
      <point x="113" y="174" type="line" smooth="yes"/>
      <point x="113" y="133"/>
      <point x="112" y="88"/>
      <point x="109" y="47" type="curve"/>
      <point x="30" y="36" type="line"/>
      <point x="26" y="23"/>
      <point x="26" y="10"/>
      <point x="30" y="-3" type="curve"/>
      <point x="72" y="-2"/>
      <point x="116" y="-1"/>
      <point x="160" y="-1" type="curve" smooth="yes"/>
      <point x="204" y="-1"/>
      <point x="247" y="-2"/>
      <point x="289" y="-4" type="curve"/>
      <point x="291" y="9"/>
      <point x="292" y="23"/>
      <point x="289" y="36" type="curve"/>
      <point x="208" y="51" type="line"/>
    </contour>
    <contour>
      <point x="149" y="570" type="move" name="top"/>
    </contour>
  </outline>
</glyph>
<glyph name="OE" format="1">
  <advance width="1282"/>
  <unicode hex="0152"/>
  <outline>
    <contour>
      <point x="217" y="816"/>
      <point x="52" y="617"/>
      <point x="52" y="386" type="curve" smooth="yes"/>
      <point x="52" y="186"/>
      <point x="184" y="-20"/>
      <point x="452" y="-20" type="curve" smooth="yes"/>
      <point x="573" y="-20"/>
      <point x="676" y="36"/>
      <point x="746" y="124" type="curve"/>
      <point x="746" y="0" type="line"/>
      <point x="1226" y="0" type="line"/>
      <point x="1227" y="232" type="line"/>
      <point x="1215" y="234"/>
      <point x="1202" y="235"/>
      <point x="1190" y="232" type="curve"/>
      <point x="1143" y="51" type="line"/>
      <point x="843" y="51" type="line"/>
      <point x="843" y="394" type="line"/>
      <point x="1004" y="391" type="line"/>
      <point x="1026" y="287" type="line"/>
      <point x="1038" y="283"/>
      <point x="1050" y="283"/>
      <point x="1062" y="287" type="curve"/>
      <point x="1060" y="329"/>
      <point x="1059" y="373"/>
      <point x="1059" y="417" type="curve" smooth="yes"/>
      <point x="1059" y="461"/>
      <point x="1060" y="504"/>
      <point x="1063" y="546" type="curve"/>
      <point x="1051" y="548"/>
      <point x="1038" y="549"/>
      <point x="1026" y="546" type="curve"/>
      <point x="1003" y="448" type="line"/>
      <point x="843" y="445" type="line"/>
      <point x="843" y="745" type="line"/>
      <point x="1113" y="745" type="line"/>
      <point x="1160" y="564" type="line"/>
      <point x="1172" y="561"/>
      <point x="1185" y="562"/>
      <point x="1197" y="564" type="curve"/>
      <point x="1196" y="796" type="line"/>
      <point x="746" y="796" type="line"/>
      <point x="746" y="683" type="line"/>
      <point x="681" y="762"/>
      <point x="582" y="816"/>
      <point x="452" y="816" type="curve" smooth="yes"/>
    </contour>
    <contour>
      <point x="256" y="35"/>
      <point x="172" y="214"/>
      <point x="172" y="411" type="curve" smooth="yes"/>
      <point x="172" y="597"/>
      <point x="258" y="761"/>
      <point x="451" y="761" type="curve" smooth="yes"/>
      <point x="657" y="761"/>
      <point x="746" y="598"/>
      <point x="746" y="412" type="curve" smooth="yes"/>
      <point x="746" y="216"/>
      <point x="656" y="35"/>
      <point x="451" y="35" type="curve" smooth="yes"/>
    </contour>
  </outline>
</glyph>
<glyph name="oe" format="1">
  <advance width="933"/>
  <unicode hex="0153"/>
  <outline>
    <contour>
      <point x="43" y="102"/>
      <point x="138" y="-20"/>
      <point x="298" y="-20" type="curve" smooth="yes"/>
      <point x="377" y="-20"/>
      <point x="445" y="14"/>
      <point x="491" y="70" type="curve"/>
      <point x="533" y="12"/>
      <point x="599" y="-20"/>
      <point x="687" y="-20" type="curve" smooth="yes"/>
      <point x="768" y="-20"/>
      <point x="826" y="7"/>
      <point x="878" y="58" type="curve"/>
      <point x="872" y="75"/>
      <point x="868" y="81"/>
      <point x="855" y="89" type="curve"/>
      <point x="811" y="57"/>
      <point x="759" y="28"/>
      <point x="703" y="28" type="curve" smooth="yes"/>
      <point x="582" y="28"/>
      <point x="540" y="132"/>
      <point x="545" y="282" type="curve"/>
      <point x="871" y="282" type="line"/>
      <point x="878" y="283"/>
      <point x="885" y="285"/>
      <point x="892" y="291" type="curve"/>
      <point x="892" y="431"/>
      <point x="842" y="554"/>
      <point x="683" y="554" type="curve" smooth="yes"/>
      <point x="608" y="554"/>
      <point x="538" y="523"/>
      <point x="493" y="460" type="curve"/>
      <point x="448" y="517"/>
      <point x="381" y="554"/>
      <point x="298" y="554" type="curve" smooth="yes"/>
      <point x="138" y="554"/>
      <point x="43" y="420"/>
      <point x="43" y="266" type="curve" smooth="yes"/>
    </contour>
    <contour>
      <point x="149" y="441"/>
      <point x="222" y="512"/>
      <point x="298" y="512" type="curve" smooth="yes"/>
      <point x="374" y="512"/>
      <point x="449" y="441"/>
      <point x="449" y="266" type="curve" smooth="yes"/>
      <point x="449" y="91"/>
      <point x="374" y="22"/>
      <point x="298" y="22" type="curve" smooth="yes"/>
      <point x="222" y="22"/>
      <point x="149" y="91"/>
      <point x="149" y="266" type="curve" smooth="yes"/>
    </contour>
    <contour>
      <point x="756" y="508"/>
      <point x="788" y="436"/>
      <point x="788" y="331" type="curve"/>
      <point x="780" y="329"/>
      <point x="736" y="322"/>
      <point x="672" y="322" type="curve" smooth="yes"/>
      <point x="548" y="322" type="line"/>
      <point x="559" y="433"/>
      <point x="609" y="508"/>
      <point x="674" y="508" type="curve" smooth="yes"/>
    </contour>
  </outline>
</glyph>
<glyph name="circumflex" format="1">
  <advance width="351"/>
  <unicode hex="02C6"/>
  <outline>
    <contour>
      <point x="43" y="587" type="line"/>
      <point x="57" y="577"/>
      <point x="80" y="572"/>
      <point x="89" y="570" type="curve"/>
      <point x="170" y="682" type="line"/>
      <point x="252" y="570" type="line"/>
      <point x="261" y="572"/>
      <point x="283" y="577"/>
      <point x="297" y="587" type="curve"/>
      <point x="198" y="761" type="line"/>
      <point x="185" y="765"/>
      <point x="178" y="768"/>
      <point x="170" y="768" type="curve" smooth="yes"/>
      <point x="162" y="768"/>
      <point x="154" y="765"/>
      <point x="142" y="761" type="curve"/>
    </contour>
    <contour>
      <point x="175" y="537" type="move" name="_top"/>
    </contour>
  </outline>
</glyph>
<glyph name="ring" format="1">
  <advance width="258"/>
  <unicode hex="02DA"/>
  <outline>
    <contour>
      <point x="20" y="610"/>
      <point x="68" y="562"/>
      <point x="128" y="562" type="curve" smooth="yes"/>
      <point x="188" y="562"/>
      <point x="237" y="610"/>
      <point x="237" y="670" type="curve" smooth="yes"/>
      <point x="237" y="730"/>
      <point x="188" y="779"/>
      <point x="128" y="779" type="curve" smooth="yes"/>
      <point x="68" y="779"/>
      <point x="20" y="730"/>
      <point x="20" y="670" type="curve" smooth="yes"/>
    </contour>
    <contour>
      <point x="70" y="702"/>
      <point x="96" y="729"/>
      <point x="128" y="729" type="curve" smooth="yes"/>
      <point x="160" y="729"/>
      <point x="187" y="702"/>
      <point x="187" y="670" type="curve" smooth="yes"/>
      <point x="187" y="638"/>
      <point x="160" y="612"/>
      <point x="128" y="612" type="curve" smooth="yes"/>
      <point x="96" y="612"/>
      <point x="70" y="638"/>
      <point x="70" y="670" type="curve" smooth="yes"/>
    </contour>
    <contour>
      <point x="129" y="537" type="move" name="_top"/>
    </contour>
  </outline>
</glyph>
<glyph name="tilde" format="1">
  <advance width="416"/>
  <unicode hex="02DC"/>
  <outline>
    <contour>
      <point x="224" y="669"/>
      <point x="214" y="723"/>
      <point x="145" y="723" type="curve" smooth="yes"/>
      <point x="76" y="723"/>
      <point x="30" y="635"/>
      <point x="30" y="635" type="curve"/>
      <point x="41" y="624"/>
      <point x="58" y="616"/>
      <point x="69" y="615" type="curve"/>
      <point x="95" y="641"/>
      <point x="109" y="654"/>
      <point x="131" y="654" type="curve" smooth="yes"/>
      <point x="184" y="654"/>
      <point x="192" y="600"/>
      <point x="263" y="600" type="curve" smooth="yes"/>
      <point x="337" y="600"/>
      <point x="376" y="684"/>
      <point x="376" y="684" type="curve"/>
      <point x="367" y="692"/>
      <point x="353" y="700"/>
      <point x="339" y="700" type="curve"/>
      <point x="309" y="675"/>
      <point x="298" y="669"/>
      <point x="276" y="669" type="curve" smooth="yes"/>
    </contour>
    <contour>
      <point x="200" y="537" type="move" name="_top"/>
    </contour>
  </outline>
</glyph>
<glyph name="endash" format="1">
  <advance width="571"/>
  <unicode hex="2013"/>
  <outline>
    <contour>
      <point x="501" y="357" type="line"/>
      <point x="506" y="374"/>
      <point x="507" y="390"/>
      <point x="501" y="407" type="curve"/>
      <point x="70" y="407" type="line"/>
      <point x="61" y="388"/>
      <point x="65" y="373"/>
      <point x="70" y="357" type="curve"/>
    </contour>
  </outline>
</glyph>
<glyph name="fraction" format="1">
  <advance width="391"/>
  <unicode hex="2044"/>
  <outline>
    <contour>
      <point x="422" y="796" type="line"/>
      <point x="406" y="799"/>
      <point x="381" y="801"/>
      <point x="362" y="796" type="curve"/>
      <point x="6" y="-25" type="line"/>
      <point x="15" y="-28"/>
      <point x="26" y="-29"/>
      <point x="37" y="-29" type="curve" smooth="yes"/>
      <point x="47" y="-29"/>
      <point x="58" y="-28"/>
      <point x="66" y="-25" type="curve"/>
    </contour>
  </outline>
</glyph>
<glyph name="foursuperior" format="1">
  <advance width="393"/>
  <unicode hex="2074"/>
  <outline>
    <contour>
      <point x="150" y="357" type="line"/>
      <point x="146" y="344"/>
      <point x="146" y="331"/>
      <point x="150" y="318" type="curve"/>
      <point x="177" y="319"/>
      <point x="225" y="321"/>
      <point x="253" y="321" type="curve" smooth="yes"/>
      <point x="281" y="321"/>
      <point x="349" y="319"/>
      <point x="376" y="317" type="curve"/>
      <point x="378" y="330"/>
      <point x="379" y="344"/>
      <point x="376" y="357" type="curve"/>
      <point x="305" y="369" type="line"/>
      <point x="305" y="454" type="line"/>
      <point x="376" y="454" type="line"/>
      <point x="376" y="468"/>
      <point x="376" y="490"/>
      <point x="377" y="510" type="curve"/>
      <point x="359" y="506"/>
      <point x="335" y="502"/>
      <point x="314" y="501" type="curve" smooth="yes"/>
      <point x="305" y="501" type="line"/>
      <point x="305" y="717" type="line" smooth="yes"/>
      <point x="305" y="750"/>
      <point x="305" y="788"/>
      <point x="310" y="818" type="curve"/>
      <point x="305" y="820"/>
      <point x="303" y="821"/>
      <point x="298" y="821" type="curve" smooth="yes"/>
      <point x="246" y="819" type="line"/>
      <point x="36" y="501" type="line"/>
      <point x="35" y="484"/>
      <point x="36" y="466"/>
      <point x="43" y="454" type="curve"/>
      <point x="223" y="454" type="line"/>
      <point x="223" y="441" type="line" smooth="yes"/>
      <point x="223" y="415"/>
      <point x="222" y="390"/>
      <point x="220" y="364" type="curve"/>
    </contour>
    <contour>
      <point x="202" y="672" type="line"/>
      <point x="223" y="702" type="line"/>
      <point x="225" y="702" type="line"/>
      <point x="223" y="657" type="line"/>
      <point x="223" y="500" type="line"/>
      <point x="87" y="499" type="line"/>
    </contour>
  </outline>
</glyph>
<glyph name="acute.case" format="1">
  <advance width="252"/>
  <outline>
    <contour>
      <point x="245" y="856" type="line"/>
      <point x="226" y="908"/>
      <point x="206" y="929"/>
      <point x="180" y="924" type="curve"/>
      <point x="34" y="792" type="line"/>
      <point x="39" y="782"/>
      <point x="50" y="768"/>
      <point x="62" y="758" type="curve"/>
    </contour>
    <contour>
      <point x="87" y="737" type="move" name="_top"/>
    </contour>
  </outline>
</glyph>
<glyph name="ring.case" format="1">
  <advance width="252"/>
  <outline>
    <contour>
      <point x="17" y="801"/>
      <point x="66" y="752"/>
      <point x="126" y="752" type="curve" smooth="yes"/>
      <point x="186" y="752"/>
      <point x="235" y="801"/>
      <point x="235" y="861" type="curve" smooth="yes"/>
      <point x="235" y="921"/>
      <point x="186" y="970"/>
      <point x="126" y="970" type="curve" smooth="yes"/>
      <point x="66" y="970"/>
      <point x="17" y="921"/>
      <point x="17" y="861" type="curve" smooth="yes"/>
    </contour>
    <contour>
      <point x="71" y="891"/>
      <point x="96" y="916"/>
      <point x="126" y="916" type="curve" smooth="yes"/>
      <point x="156" y="916"/>
      <point x="181" y="891"/>
      <point x="181" y="861" type="curve" smooth="yes"/>
      <point x="181" y="832"/>
      <point x="156" y="806"/>
      <point x="126" y="806" type="curve" smooth="yes"/>
      <point x="96" y="806"/>
      <point x="71" y="832"/>
      <point x="71" y="861" type="curve" smooth="yes"/>
    </contour>
    <contour>
      <point x="126" y="737" type="move" name="_top"/>
    </contour>
  </outline>
</glyph>
<glyph name="tilde.case" format="1">
  <advance width="383"/>
  <outline>
    <contour>
      <point x="204" y="845"/>
      <point x="194" y="899"/>
      <point x="125" y="899" type="curve" smooth="yes"/>
      <point x="56" y="899"/>
      <point x="10" y="811"/>
      <point x="10" y="811" type="curve"/>
      <point x="21" y="800"/>
      <point x="33" y="794"/>
      <point x="44" y="793" type="curve"/>
      <point x="70" y="819"/>
      <point x="89" y="832"/>
      <point x="111" y="832" type="curve" smooth="yes"/>
      <point x="164" y="832"/>
      <point x="172" y="778"/>
      <point x="243" y="778" type="curve" smooth="yes"/>
      <point x="317" y="778"/>
      <point x="356" y="862"/>
      <point x="356" y="862" type="curve"/>
      <point x="347" y="870"/>
      <point x="338" y="876"/>
      <point x="324" y="876" type="curve"/>
      <point x="294" y="851"/>
      <point x="278" y="845"/>
      <point x="256" y="845" type="curve" smooth="yes"/>
    </contour>
    <contour>
      <point x="184" y="737" type="move" name="_top"/>
    </contour>
  </outline>
</glyph>
